<?xml version="1.0" encoding="UTF-8"?>
<svg width="28px" height="30px" viewBox="0 0 28 30" version="1.1" xmlns="http://www.w3.org/2000/svg" xmlns:xlink="http://www.w3.org/1999/xlink">
    <!-- Generator: Sketch 48.2 (47327) - http://www.bohemiancoding.com/sketch -->
    <title>出证</title>
    <desc>Created with Sketch.</desc>
    <defs></defs>
    <g id="Custom-Preset" stroke="none" stroke-width="1" fill="none" fill-rule="evenodd" transform="translate(-986.000000, -114.000000)">
        <g id="出证" transform="translate(987.000000, 115.000000)">
            <path d="M1,2.1777806e-06 L19.02,2.1777806e-06 C19.2844729,-0.000552708872 19.5381273,0.104949574 19.7241962,0.29289794 C19.9102651,0.480846307 20.0132128,0.735548221 20.01,1.00000218 L20.01,22.0000022 C20.0132128,22.2644561 19.9102651,22.519158 19.7241962,22.7071064 C19.5381273,22.8950548 19.2844729,23.0005571 19.02,23.0000022 L1,23.0000022 C0.44771525,23.0000022 -1.13686838e-13,22.5522869 -1.13686838e-13,22.0000022 L-1.13686838e-13,1.00000218 C1.13686838e-13,0.447717428 0.44771525,2.1777806e-06 1,2.1777806e-06 Z" id="圆角矩形_1325" stroke="#FFFFFF" stroke-width="2"></path>
            <path d="M22,5.00000218 C22.2573704,5.00000218 22.9307037,5.00000218 24.02,5.00000218 C24.2844729,4.99944729 24.5381273,5.10494957 24.7241962,5.29289794 C24.9102651,5.48084631 25.0132128,5.73554822 25.01,6.00000218 L25.01,27.0000022 C25.0132128,27.2644561 24.9102651,27.519158 24.7241962,27.7071064 C24.5381273,27.8950548 24.2844729,28.0005571 24.02,28.0000022 L6,28.0000022 C5.44771525,28.0000022 5,27.5522869 5,27.0000022 C5,26.1480552 5,25.4813878 5,25" id="圆角矩形_1325-copy" stroke="#FFFFFF" stroke-width="2"></path>
            <rect id="圆角矩形_1327" fill="#FFFFFF" fill-rule="nonzero" x="5" y="6" width="10" height="2" rx="1"></rect>
            <rect id="圆角矩形_1327_拷贝" fill="#FFFFFF" fill-rule="nonzero" x="5" y="10" width="10" height="2" rx="1"></rect>
            <rect id="圆角矩形_1327_拷贝_2" fill="#FFFFFF" fill-rule="nonzero" x="5" y="14" width="6" height="2" rx="1"></rect>
        </g>
    </g>
</svg>