<svg id="图层_1" data-name="图层 1" xmlns="http://www.w3.org/2000/svg" xmlns:xlink="http://www.w3.org/1999/xlink" viewBox="0 0 50 50"><defs><style>.cls-1,.cls-2,.cls-27,.cls-3,.cls-6{fill:none;}.cls-1{clip-rule:evenodd;}.cls-3{fill-rule:evenodd;}.cls-4{clip-path:url(#clip-path);}.cls-5{clip-path:url(#clip-path-2);}.cls-27,.cls-6{stroke:#344b63;stroke-miterlimit:10;}.cls-6{stroke-width:4px;}.cls-7{clip-path:url(#clip-path-3);}.cls-8{isolation:isolate;}.cls-9{clip-path:url(#clip-path-5);}.cls-10{clip-path:url(#clip-path-6);}.cls-11{fill:#fff;}.cls-12{clip-path:url(#clip-path-9);}.cls-13{fill:#10c786;}.cls-14{clip-path:url(#clip-path-11);}.cls-15{clip-path:url(#clip-path-13);}.cls-16{clip-path:url(#clip-path-15);}.cls-17{clip-path:url(#clip-path-17);}.cls-18{clip-path:url(#clip-path-19);}.cls-19{clip-path:url(#clip-path-21);}.cls-20{clip-path:url(#clip-path-23);}.cls-21{clip-path:url(#clip-path-25);}.cls-22{fill:#c2c5c4;}.cls-23{clip-path:url(#clip-path-27);}.cls-24{clip-path:url(#clip-path-29);}.cls-25{clip-path:url(#clip-path-31);}.cls-26{clip-path:url(#clip-path-33);}.cls-27{stroke-width:2px;}.cls-28{clip-path:url(#clip-path-36);}.cls-29{clip-path:url(#clip-path-38);}.cls-30{fill:#d8d8d8;opacity:0;}</style><clipPath id="clip-path"><path class="cls-1" d="M36.8,14.68V43.4c0,.8.12.67-.7.67H8.49c-.82,0-.71.13-.71-.67V5.45c0-.8-.11-.66.71-.66H25.61A2,2,0,0,1,27,5.3l9.52,8.64A1,1,0,0,1,36.8,14.68Zm-41-21.9h53V56.07h-53Z"/></clipPath><clipPath id="clip-path-2"><rect class="cls-2" x="-552" y="-242" width="1440" height="900"/></clipPath><clipPath id="clip-path-3"><path class="cls-1" d="M36.8,14.68V43.4c0,.8.12.67-.7.67H8.49c-.82,0-.71.13-.71-.67V5.45c0-.8-.11-.66.71-.66H25.61A2,2,0,0,1,27,5.3l9.52,8.64A1,1,0,0,1,36.8,14.68Z"/></clipPath><clipPath id="clip-path-5"><rect class="cls-2" x="-5" y="-16" width="64" height="73"/></clipPath><clipPath id="clip-path-6"><rect class="cls-2" x="7" y="4" width="30" height="41"/></clipPath><clipPath id="clip-path-9"><path class="cls-1" d="M46.32,14.51H29.39a3,3,0,0,1-3-3V-3.07l1.66-.75L47,12.76Z"/></clipPath><clipPath id="clip-path-11"><path class="cls-1" d="M27.39-3.07V11.51a2,2,0,0,0,2,2H46.32Zm-12-12H58.32V25.51H15.39Z"/></clipPath><clipPath id="clip-path-13"><rect class="cls-2" x="10.92" y="12.64" width="3.14" height="1.57"/></clipPath><clipPath id="clip-path-15"><rect class="cls-2" x="10.92" y="27.57" width="3.14" height="1.57"/></clipPath><clipPath id="clip-path-17"><rect class="cls-2" x="15.63" y="12.64" width="3.14" height="1.57"/></clipPath><clipPath id="clip-path-19"><rect class="cls-2" x="15.63" y="27.57" width="3.14" height="1.57"/></clipPath><clipPath id="clip-path-21"><rect class="cls-2" x="20.33" y="12.64" width="3.14" height="1.57"/></clipPath><clipPath id="clip-path-23"><rect class="cls-2" x="20.33" y="27.57" width="3.14" height="1.57"/></clipPath><clipPath id="clip-path-25"><rect class="cls-2" x="10.92" y="16.57" width="12.55" height="1.57"/></clipPath><clipPath id="clip-path-27"><rect class="cls-2" x="10.92" y="31.5" width="12.55" height="1.57"/></clipPath><clipPath id="clip-path-29"><rect class="cls-2" x="10.92" y="20.5" width="22.75" height="1.57"/></clipPath><clipPath id="clip-path-31"><rect class="cls-2" x="10.92" y="35.42" width="18.04" height="1.57"/></clipPath><clipPath id="clip-path-33"><ellipse class="cls-2" cx="39.16" cy="29.92" rx="7.84" ry="7.86"/></clipPath><clipPath id="clip-path-36"><polygon class="cls-1" points="38.56 30.54 41.66 27.43 42.77 28.54 39.67 31.64 39.67 31.64 38.56 32.76 38.56 32.75 38.56 32.76 37.45 31.65 37.45 31.64 36.02 30.21 37.13 29.1 38.56 30.54"/></clipPath><clipPath id="clip-path-38"><rect class="cls-2" x="2" y="-1" width="50" height="50"/></clipPath></defs><title>画板 1</title><g class="cls-4"><g class="cls-5"><path class="cls-6" d="M36.8,14.68V43.4c0,.8.12.67-.7.67H8.49c-.82,0-.71.13-.71-.67V5.45c0-.8-.11-.66.71-.66H25.61A2,2,0,0,1,27,5.3l9.52,8.64A1,1,0,0,1,36.8,14.68Z"/></g></g><g class="cls-7"><g class="cls-5"><g class="cls-8"><g class="cls-9"><g class="cls-10"><rect class="cls-11" x="2.78" y="-0.22" width="39.03" height="49.3"/></g><g class="cls-4"><g class="cls-10"><path class="cls-6" d="M36.8,14.68V43.4c0,.8.12.67-.7.67H8.49c-.82,0-.71.13-.71-.67V5.45c0-.8-.11-.66.71-.66H25.61A2,2,0,0,1,27,5.3l9.52,8.64A1,1,0,0,1,36.8,14.68Z"/></g></g><g class="cls-12"><g class="cls-10"><rect class="cls-13" x="22.39" y="-8.07" width="28.92" height="26.58"/></g></g><g class="cls-14"><g class="cls-10"><path class="cls-6" d="M27.39-3.07V11.51a2,2,0,0,0,2,2H46.32Z"/></g></g></g></g></g></g><g class="cls-15"><g class="cls-5"><rect class="cls-13" x="5.92" y="7.64" width="13.14" height="11.57"/></g></g><g class="cls-16"><g class="cls-5"><rect class="cls-13" x="5.92" y="22.57" width="13.14" height="11.57"/></g></g><g class="cls-17"><g class="cls-5"><rect class="cls-13" x="10.63" y="7.64" width="13.14" height="11.57"/></g></g><g class="cls-18"><g class="cls-5"><rect class="cls-13" x="10.63" y="22.57" width="13.14" height="11.57"/></g></g><g class="cls-19"><g class="cls-5"><rect class="cls-13" x="15.33" y="7.64" width="13.14" height="11.57"/></g></g><g class="cls-20"><g class="cls-5"><rect class="cls-13" x="15.33" y="22.57" width="13.14" height="11.57"/></g></g><g class="cls-21"><g class="cls-5"><rect class="cls-22" x="5.92" y="11.57" width="22.55" height="11.57"/></g></g><g class="cls-23"><g class="cls-5"><rect class="cls-22" x="5.92" y="26.5" width="22.55" height="11.57"/></g></g><g class="cls-24"><g class="cls-5"><rect class="cls-22" x="5.92" y="15.5" width="32.75" height="11.57"/></g></g><g class="cls-25"><g class="cls-5"><rect class="cls-22" x="5.92" y="30.42" width="28.04" height="11.57"/></g></g><g class="cls-26"><g class="cls-5"><rect class="cls-13" x="26.31" y="17.07" width="25.69" height="25.71"/></g></g><g class="cls-5"><ellipse class="cls-27" cx="39.16" cy="29.92" rx="7.84" ry="7.86"/></g><g class="cls-28"><g class="cls-5"><rect class="cls-11" x="31.42" y="22.58" width="15.96" height="13.6" transform="translate(-9.23 36.46) rotate(-45)"/></g></g><g class="cls-29"><g class="cls-5"><rect class="cls-30" x="-3" y="-6" width="60" height="60"/></g></g></svg>