<svg id="图层_1" data-name="图层 1" xmlns="http://www.w3.org/2000/svg" xmlns:xlink="http://www.w3.org/1999/xlink" viewBox="0 0 106 90"><defs><style>.cls-1,.cls-2,.cls-3,.cls-5,.cls-9{fill:none;}.cls-2{clip-rule:evenodd;}.cls-3{fill-rule:evenodd;}.cls-4{clip-path:url(#clip-path);}.cls-5{stroke:#c2c5c4;stroke-dasharray:3 2;}.cls-5,.cls-9{stroke-miterlimit:10;}.cls-6{clip-path:url(#clip-path-2);}.cls-7{clip-path:url(#clip-path-3);}.cls-8{fill:#c2c5c4;}.cls-9{stroke:#344b63;stroke-width:4px;}.cls-10{clip-path:url(#clip-path-7);}.cls-11{fill:#f2f2f2;}.cls-12{clip-path:url(#clip-path-9);}.cls-13{clip-path:url(#clip-path-10);}.cls-14,.cls-40{fill:#d8d8d8;}.cls-15{clip-path:url(#clip-path-14);}.cls-16{clip-path:url(#clip-path-16);}.cls-17{isolation:isolate;}.cls-18{clip-path:url(#clip-path-18);}.cls-19{clip-path:url(#clip-path-19);}.cls-20{fill:#fff;}.cls-21{clip-path:url(#clip-path-22);}.cls-22{fill:#10c786;}.cls-23{clip-path:url(#clip-path-24);}.cls-24{clip-path:url(#clip-path-26);}.cls-25{clip-path:url(#clip-path-28);}.cls-26{clip-path:url(#clip-path-30);}.cls-27{clip-path:url(#clip-path-32);}.cls-28{clip-path:url(#clip-path-34);}.cls-29{clip-path:url(#clip-path-36);}.cls-30{clip-path:url(#clip-path-38);}.cls-31{clip-path:url(#clip-path-40);}.cls-32{clip-path:url(#clip-path-42);}.cls-33{clip-path:url(#clip-path-44);}.cls-34{clip-path:url(#clip-path-46);}.cls-35{clip-path:url(#clip-path-48);}.cls-36{fill:#344b63;}.cls-37{clip-path:url(#clip-path-50);}.cls-38{clip-path:url(#clip-path-52);}.cls-39{clip-path:url(#clip-path-54);}.cls-40{opacity:0;}</style><clipPath id="clip-path"><rect class="cls-1" x="-1068" y="-143" width="1440" height="900"/></clipPath><clipPath id="clip-path-2"><path class="cls-2" d="M29.66,5a4,4,0,0,0-4,4V46.74a4,4,0,0,0,4,4H82.54a4,4,0,0,0,4-4V9a4,4,0,0,0-4-4Zm0,2H82.54a2,2,0,0,1,2,2V46.74a2,2,0,0,1-2,2H29.66a2,2,0,0,1-2-2V9A2,2,0,0,1,29.66,7Zm-24-22H106.54V70.74H5.66Z"/></clipPath><clipPath id="clip-path-3"><rect class="cls-1" x="26.66" y="6" width="58.88" height="43.74" rx="3" ry="3"/></clipPath><clipPath id="clip-path-7"><rect class="cls-1" x="30.87" y="10.21" width="50.47" height="35.33"/></clipPath><clipPath id="clip-path-9"><path class="cls-2" d="M20.93,44.53a2,2,0,0,0-2,2V47.6a4.29,4.29,0,0,0,2.43,3.86l4.2,2a5.92,5.92,0,0,0,2.62.6H84a6,6,0,0,0,2.62-.6l4.2-2a4.3,4.3,0,0,0,2.42-3.86V46.53a2,2,0,0,0-2-2Zm0,2H91.27V47.6A2.28,2.28,0,0,1,90,49.66l-4.2,2a3.94,3.94,0,0,1-1.75.4H28.18a3.9,3.9,0,0,1-1.75-.4l-4.2-2a2.29,2.29,0,0,1-1.3-2.06Zm-22-22H113.27V74.1H-1.07Z"/></clipPath><clipPath id="clip-path-10"><path class="cls-2" d="M20.93,45.53H91.27a1,1,0,0,1,1,1V47.6a3.29,3.29,0,0,1-1.86,3l-4.2,2a5,5,0,0,1-2.18.5H28.18A5,5,0,0,1,26,52.6l-4.2-2a3.3,3.3,0,0,1-1.86-3V46.53A1,1,0,0,1,20.93,45.53Z"/></clipPath><clipPath id="clip-path-14"><path class="cls-2" d="M46.43,38.13V74.61c0,1,.15.85-.9.85H10.26c-1,0-.9.17-.9-.85V26.55c0-1-.15-.85.9-.85H32.35a2,2,0,0,1,1.34.52L46.1,37.38A1,1,0,0,1,46.43,38.13ZM-2.65,13.69H58.43V87.47H-2.65Z"/></clipPath><clipPath id="clip-path-16"><path class="cls-2" d="M46.43,38.13V74.61c0,1,.15.85-.9.85H10.26c-1,0-.9.17-.9-.85V26.55c0-1-.15-.85.9-.85H32.35a2,2,0,0,1,1.34.52L46.1,37.38A1,1,0,0,1,46.43,38.13Z"/></clipPath><clipPath id="clip-path-18"><rect class="cls-1" x="-3" y="3" width="74" height="85"/></clipPath><clipPath id="clip-path-19"><rect class="cls-1" x="9" y="25" width="38" height="51"/></clipPath><clipPath id="clip-path-22"><path class="cls-2" d="M58.57,37.75H36.4a3,3,0,0,1-2.12-.88,3,3,0,0,1-.88-2.12v-19L35.06,15,59.23,36Z"/></clipPath><clipPath id="clip-path-24"><path class="cls-2" d="M34.4,15.75v19a2,2,0,0,0,2,2H58.57Zm-12-12H70.57v45H22.4Z"/></clipPath><clipPath id="clip-path-26"><rect class="cls-1" x="13.21" y="37.96" width="10.09" height="1.68"/></clipPath><clipPath id="clip-path-28"><rect class="cls-1" x="13.21" y="41.33" width="28.6" height="1.68"/></clipPath><clipPath id="clip-path-30"><rect class="cls-1" x="13.21" y="58.15" width="21.87" height="1.68"/></clipPath><clipPath id="clip-path-32"><rect class="cls-1" x="13.21" y="64.88" width="26.92" height="1.68"/></clipPath><clipPath id="clip-path-34"><rect class="cls-1" x="13.21" y="51.42" width="28.6" height="1.68"/></clipPath><clipPath id="clip-path-36"><rect class="cls-1" x="13.21" y="61.51" width="28.6" height="1.68"/></clipPath><clipPath id="clip-path-38"><rect class="cls-1" x="13.21" y="44.69" width="6.73" height="1.68"/></clipPath><clipPath id="clip-path-40"><rect class="cls-1" x="35.07" y="54.79" width="6.73" height="1.68"/></clipPath><clipPath id="clip-path-42"><rect class="cls-1" x="22.46" y="44.69" width="18.5" height="1.68"/></clipPath><clipPath id="clip-path-44"><rect class="cls-1" x="13.21" y="54.79" width="18.5" height="1.68"/></clipPath><clipPath id="clip-path-46"><rect class="cls-1" x="13.21" y="34.6" width="13.46" height="1.68"/></clipPath><clipPath id="clip-path-48"><circle class="cls-1" cx="47.69" cy="74.97" r="12.62"/></clipPath><clipPath id="clip-path-50"><rect class="cls-1" x="43.49" y="74.13" width="8.41" height="1.68"/></clipPath><clipPath id="clip-path-52"><rect class="cls-1" x="46.85" y="70.77" width="1.68" height="8.41"/></clipPath><clipPath id="clip-path-54"><rect class="cls-1" x="-3" y="3" width="106" height="90"/></clipPath></defs><title>画板 1</title><g class="cls-4"><polyline class="cls-5" points="92.66 48.06 99 48.06 99 66.56 46.85 66.56"/></g><g class="cls-6"><g class="cls-7"><g class="cls-4"><rect class="cls-8" x="26.66" y="6" width="58.88" height="43.74" rx="3" ry="3"/></g></g></g><g class="cls-7"><g class="cls-4"><rect class="cls-9" x="26.66" y="6" width="58.88" height="43.74" rx="3" ry="3"/></g></g><g class="cls-10"><g class="cls-4"><rect class="cls-11" x="25.87" y="5.21" width="60.47" height="45.33"/></g></g><g class="cls-12"><g class="cls-13"><g class="cls-4"><path class="cls-14" d="M20.93,45.53H91.27a1,1,0,0,1,1,1V47.6a3.29,3.29,0,0,1-1.86,3l-4.2,2a5,5,0,0,1-2.18.5H28.18A5,5,0,0,1,26,52.6l-4.2-2a3.3,3.3,0,0,1-1.86-3V46.53A1,1,0,0,1,20.93,45.53Z"/></g></g></g><g class="cls-13"><g class="cls-4"><path class="cls-9" d="M20.93,45.53H91.27a1,1,0,0,1,1,1V47.6a3.29,3.29,0,0,1-1.86,3l-4.2,2a5,5,0,0,1-2.18.5H28.18A5,5,0,0,1,26,52.6l-4.2-2a3.3,3.3,0,0,1-1.86-3V46.53A1,1,0,0,1,20.93,45.53Z"/></g></g><g class="cls-15"><g class="cls-4"><path class="cls-9" d="M46.43,38.13V74.61c0,1,.15.85-.9.85H10.26c-1,0-.9.17-.9-.85V26.55c0-1-.15-.85.9-.85H32.35a2,2,0,0,1,1.34.52L46.1,37.38A1,1,0,0,1,46.43,38.13Z"/></g></g><g class="cls-16"><g class="cls-4"><g class="cls-17"><g class="cls-18"><g class="cls-19"><rect class="cls-20" x="4.35" y="20.69" width="47.08" height="59.78"/></g><g class="cls-15"><g class="cls-19"><path class="cls-9" d="M46.43,38.13V74.61c0,1,.15.85-.9.85H10.26c-1,0-.9.17-.9-.85V26.55c0-1-.15-.85.9-.85H32.35a2,2,0,0,1,1.34.52L46.1,37.38A1,1,0,0,1,46.43,38.13Z"/></g></g><g class="cls-21"><g class="cls-19"><rect class="cls-22" x="29.4" y="10.75" width="34.17" height="31"/></g></g><g class="cls-23"><g class="cls-19"><path class="cls-9" d="M34.4,15.75v19a2,2,0,0,0,2,2H58.57Z"/></g></g></g></g></g></g><g class="cls-24"><g class="cls-4"><rect class="cls-8" x="8.21" y="32.96" width="20.09" height="11.68"/></g></g><g class="cls-25"><g class="cls-4"><rect class="cls-8" x="8.21" y="36.33" width="38.6" height="11.68"/></g></g><g class="cls-26"><g class="cls-4"><rect class="cls-8" x="8.21" y="53.15" width="31.87" height="11.68"/></g></g><g class="cls-27"><g class="cls-4"><rect class="cls-8" x="8.21" y="59.88" width="36.92" height="11.68"/></g></g><g class="cls-28"><g class="cls-4"><rect class="cls-8" x="8.21" y="46.42" width="38.6" height="11.68"/></g></g><g class="cls-29"><g class="cls-4"><rect class="cls-8" x="8.21" y="56.51" width="38.6" height="11.68"/></g></g><g class="cls-30"><g class="cls-4"><rect class="cls-8" x="8.21" y="39.69" width="16.73" height="11.68"/></g></g><g class="cls-31"><g class="cls-4"><rect class="cls-8" x="30.07" y="49.79" width="16.73" height="11.68"/></g></g><g class="cls-32"><g class="cls-4"><rect class="cls-8" x="17.46" y="39.69" width="28.5" height="11.68"/></g></g><g class="cls-33"><g class="cls-4"><rect class="cls-8" x="8.21" y="49.79" width="28.5" height="11.68"/></g></g><g class="cls-34"><g class="cls-4"><rect class="cls-8" x="8.21" y="29.6" width="23.46" height="11.68"/></g></g><g class="cls-35"><g class="cls-4"><rect class="cls-36" x="30.07" y="57.36" width="35.23" height="35.23"/></g></g><g class="cls-37"><g class="cls-4"><rect class="cls-20" x="38.49" y="69.13" width="18.41" height="11.68"/></g></g><g class="cls-38"><g class="cls-4"><rect class="cls-20" x="41.85" y="65.77" width="11.68" height="18.41"/></g></g><g class="cls-39"><g class="cls-4"><rect class="cls-40" x="-8" y="-2" width="116" height="100"/></g></g></svg>