<svg id="图层_1" data-name="图层 1" xmlns="http://www.w3.org/2000/svg" xmlns:xlink="http://www.w3.org/1999/xlink" viewBox="0 0 50 50"><defs><style>.cls-1,.cls-13,.cls-2,.cls-3,.cls-7{fill:none;}.cls-2{clip-rule:evenodd;}.cls-3{fill-rule:evenodd;}.cls-4{clip-path:url(#clip-path);}.cls-5{clip-path:url(#clip-path-2);}.cls-6{fill:#fff;}.cls-13,.cls-7{stroke:#344b63;stroke-miterlimit:10;}.cls-7{stroke-width:2px;}.cls-8{clip-path:url(#clip-path-4);}.cls-9{clip-path:url(#clip-path-7);}.cls-10{fill:#10c786;}.cls-11{clip-path:url(#clip-path-10);}.cls-12{clip-path:url(#clip-path-13);}.cls-13{stroke-width:4px;}.cls-14{clip-path:url(#clip-path-15);}.cls-15{isolation:isolate;}.cls-16{clip-path:url(#clip-path-17);}.cls-17{clip-path:url(#clip-path-18);}.cls-18{clip-path:url(#clip-path-21);}.cls-19{clip-path:url(#clip-path-22);}.cls-20{clip-path:url(#clip-path-26);}.cls-21{clip-path:url(#clip-path-27);}.cls-22{clip-path:url(#clip-path-31);}.cls-23{fill:#c2c5c4;}.cls-24{clip-path:url(#clip-path-33);}.cls-25{clip-path:url(#clip-path-35);}.cls-26{fill:#d8d8d8;opacity:0;}</style><clipPath id="clip-path"><rect class="cls-1" x="12.04" y="8.02" width="20.9" height="19.29" rx="1" ry="1"/></clipPath><clipPath id="clip-path-2"><rect class="cls-1" x="-753" y="-242" width="1440" height="900"/></clipPath><clipPath id="clip-path-4"><rect class="cls-1" x="18.47" y="4" width="18.49" height="19.29" rx="1" ry="1"/></clipPath><clipPath id="clip-path-7"><path class="cls-2" d="M9.78,16.39,4.54,24.27a1,1,0,0,0,.83,1.56h5.24a1,1,0,0,0,1-1V17a1,1,0,0,0-1-1A1,1,0,0,0,9.78,16.39Z"/></clipPath><clipPath id="clip-path-10"><path class="cls-2" d="M39.22,16.39l5.24,7.88a1,1,0,0,1-.83,1.56H38.39a1,1,0,0,1-1-1V17a1,1,0,0,1,1-1A1,1,0,0,1,39.22,16.39Z"/></clipPath><clipPath id="clip-path-13"><path class="cls-2" d="M11,16.06H38a1,1,0,0,1,1,1V43.39a1,1,0,0,1-1,1H11a1,1,0,0,1-1-1V17.06A1,1,0,0,1,11,16.06Zm-13-12H51V56.39H-2Z"/></clipPath><clipPath id="clip-path-15"><rect class="cls-1" x="10.04" y="16.06" width="28.94" height="28.33" rx="1" ry="1"/></clipPath><clipPath id="clip-path-17"><rect class="cls-1" x="-2" y="4" width="53" height="53"/></clipPath><clipPath id="clip-path-18"><rect class="cls-1" x="10" y="16" width="29" height="29"/></clipPath><clipPath id="clip-path-21"><path class="cls-2" d="M8.18,12.29H6.45l.86,1.5,6.89,12a3,3,0,0,0,2.6,1.51H32.2a3,3,0,0,0,2.6-1.51l6.89-12,.86-1.5H8.18Zm0,2H40.82L40,12.79l-6.88,12a1,1,0,0,1-.87.5H16.8a1,1,0,0,1-.87-.5l-6.88-12Zm-21.73-22h76.1v55h-76.1Z"/></clipPath><clipPath id="clip-path-22"><path class="cls-2" d="M8.18,13.29H40.82l-6.88,12a2,2,0,0,1-1.74,1H16.8a2,2,0,0,1-1.74-1Z"/></clipPath><clipPath id="clip-path-26"><path class="cls-2" d="M17.57,32.24a2,2,0,0,0-2,2V38.7a2,2,0,0,0,2,2H31.43a2,2,0,0,0,2-2V34.24a2,2,0,0,0-2-2Zm0,2H31.43V38.7H17.57Zm-22-22H53.43V60.7H-4.43Z"/></clipPath><clipPath id="clip-path-27"><rect class="cls-1" x="16.57" y="33.24" width="15.86" height="6.46" rx="1" ry="1"/></clipPath><clipPath id="clip-path-31"><rect class="cls-1" x="22.49" y="8.02" width="10.45" height="1.61"/></clipPath><clipPath id="clip-path-33"><rect class="cls-1" x="22.49" y="11.24" width="10.45" height="1.61"/></clipPath><clipPath id="clip-path-35"><rect class="cls-1" x="-1" y="-1" width="50" height="50"/></clipPath></defs><title>画板 1</title><g class="cls-4"><g class="cls-5"><rect class="cls-6" x="7.04" y="3.02" width="30.9" height="29.29"/></g></g><g class="cls-5"><rect class="cls-7" x="12.04" y="8.02" width="20.9" height="19.29" rx="1" ry="1"/></g><g class="cls-8"><g class="cls-5"><rect class="cls-6" x="13.47" y="-1" width="28.49" height="29.29"/></g></g><g class="cls-5"><rect class="cls-7" x="18.47" y="4" width="18.49" height="19.29" rx="1" ry="1"/></g><g class="cls-9"><g class="cls-5"><rect class="cls-10" x="-0.63" y="10.95" width="17.23" height="19.88"/></g></g><g class="cls-5"><path class="cls-7" d="M9.78,16.39,4.54,24.27a1,1,0,0,0,.83,1.56h5.24a1,1,0,0,0,1-1V17a1,1,0,0,0-1-1A1,1,0,0,0,9.78,16.39Z"/></g><g class="cls-11"><g class="cls-5"><rect class="cls-10" x="32.39" y="10.95" width="17.23" height="19.88"/></g></g><g class="cls-5"><path class="cls-7" d="M39.22,16.39l5.24,7.88a1,1,0,0,1-.83,1.56H38.39a1,1,0,0,1-1-1V17a1,1,0,0,1,1-1A1,1,0,0,1,39.22,16.39Z"/></g><g class="cls-12"><g class="cls-5"><rect class="cls-13" x="10.04" y="16.06" width="28.94" height="28.33" rx="1" ry="1"/></g></g><g class="cls-14"><g class="cls-5"><g class="cls-15"><g class="cls-16"><g class="cls-17"><rect class="cls-6" x="5.04" y="11.06" width="38.94" height="38.33"/></g><g class="cls-12"><g class="cls-17"><rect class="cls-13" x="10.04" y="16.06" width="28.94" height="28.33" rx="1" ry="1"/></g></g><g class="cls-18"><g class="cls-19"><g class="cls-17"><path class="cls-10" d="M8.18,13.29H40.82l-6.88,12a2,2,0,0,1-1.74,1H16.8a2,2,0,0,1-1.74-1Z"/></g></g></g><g class="cls-19"><g class="cls-17"><path class="cls-13" d="M8.18,13.29H40.82l-6.88,12a2,2,0,0,1-1.74,1H16.8a2,2,0,0,1-1.74-1Z"/></g></g><g class="cls-20"><g class="cls-21"><g class="cls-17"><rect class="cls-10" x="16.57" y="33.24" width="15.86" height="6.46" rx="1" ry="1"/></g></g></g><g class="cls-21"><g class="cls-17"><rect class="cls-13" x="16.57" y="33.24" width="15.86" height="6.46" rx="1" ry="1"/></g></g></g></g></g></g><g class="cls-22"><g class="cls-5"><rect class="cls-23" x="17.49" y="3.02" width="20.45" height="11.61"/></g></g><g class="cls-24"><g class="cls-5"><rect class="cls-23" x="17.49" y="6.24" width="20.45" height="11.61"/></g></g><g class="cls-25"><g class="cls-5"><rect class="cls-26" x="-6" y="-6" width="60" height="60"/></g></g></svg>