<?xml version="1.0" encoding="UTF-8"?>
<svg width="74px" height="116px" viewBox="0 0 74 116" version="1.1" xmlns="http://www.w3.org/2000/svg" xmlns:xlink="http://www.w3.org/1999/xlink">
    <!-- Generator: Sketch 50.2 (55047) - http://www.bohemiancoding.com/sketch -->
    <title>手机盾</title>
    <desc>Created with Sketch.</desc>
    <defs>
        <linearGradient x1="50%" y1="0%" x2="50%" y2="100%" id="linearGradient-1">
            <stop stop-color="#959595" offset="0%"></stop>
            <stop stop-color="#585858" offset="100%"></stop>
        </linearGradient>
        <rect id="path-2" x="0" y="0" width="50" height="90" rx="6"></rect>
        <filter x="-18.0%" y="-6.7%" width="136.0%" height="120.0%" filterUnits="objectBoundingBox" id="filter-3">
            <feOffset dx="0" dy="3" in="SourceAlpha" result="shadowOffsetOuter1"></feOffset>
            <feGaussianBlur stdDeviation="2.5" in="shadowOffsetOuter1" result="shadowBlurOuter1"></feGaussianBlur>
            <feColorMatrix values="0 0 0 0 0.819607843   0 0 0 0 0.839215686   0 0 0 0 0.866666667  0 0 0 1 0" type="matrix" in="shadowBlurOuter1"></feColorMatrix>
        </filter>
        <linearGradient x1="50%" y1="-17.4878304%" x2="50%" y2="104.08816%" id="linearGradient-4">
            <stop stop-color="#F2F2F2" offset="0%"></stop>
            <stop stop-color="#EDF1F6" offset="100%"></stop>
        </linearGradient>
        <rect id="path-5" x="0" y="0" width="42" height="66"></rect>
        <linearGradient x1="48.056981%" y1="96.7567841%" x2="48.056981%" y2="19.0535033%" id="linearGradient-7">
            <stop stop-color="#FFFFFF" offset="0%"></stop>
            <stop stop-color="#FFFFFF" offset="100%"></stop>
        </linearGradient>
        <filter x="-18.4%" y="-11.9%" width="136.8%" height="133.3%" filterUnits="objectBoundingBox" id="filter-8">
            <feOffset dx="0" dy="2" in="SourceAlpha" result="shadowOffsetOuter1"></feOffset>
            <feGaussianBlur stdDeviation="2" in="shadowOffsetOuter1" result="shadowBlurOuter1"></feGaussianBlur>
            <feColorMatrix values="0 0 0 0 0.82745098   0 0 0 0 0.847058824   0 0 0 0 0.866666667  0 0 0 0.497452446 0" type="matrix" in="shadowBlurOuter1" result="shadowMatrixOuter1"></feColorMatrix>
            <feMerge>
                <feMergeNode in="shadowMatrixOuter1"></feMergeNode>
                <feMergeNode in="SourceGraphic"></feMergeNode>
            </feMerge>
        </filter>
        <linearGradient x1="50%" y1="4.72077621%" x2="50%" y2="100%" id="linearGradient-9">
            <stop stop-color="#EDF1F6" offset="0%"></stop>
            <stop stop-color="#D7DFE9" offset="100%"></stop>
        </linearGradient>
        <linearGradient x1="50%" y1="0%" x2="50%" y2="100%" id="linearGradient-10">
            <stop stop-color="#DEE4EB" offset="0%"></stop>
            <stop stop-color="#B5BDC7" offset="100%"></stop>
        </linearGradient>
    </defs>
    <g id="个人中心" stroke="none" stroke-width="1" fill="none" fill-rule="evenodd">
        <g id="个人中心（证书管理手机盾未申请状态）" transform="translate(-232.000000, -475.000000)">
            <g id="手机盾" transform="translate(237.000000, 477.000000)">
                <g id="Rectangle-7">
                    <use fill="black" fill-opacity="1" filter="url(#filter-3)" xlink:href="#path-2"></use>
                    <use fill="url(#linearGradient-1)" fill-rule="evenodd" xlink:href="#path-2"></use>
                </g>
                <g id="Rectangle-4-Copy" transform="translate(4.000000, 9.000000)">
                    <mask id="mask-6" fill="white">
                        <use xlink:href="#path-5"></use>
                    </mask>
                    <use id="Mask" fill="url(#linearGradient-4)" xlink:href="#path-5"></use>
                    <polygon id="Rectangle" fill="url(#linearGradient-7)" opacity="0.272209821" mask="url(#mask-6)" points="-9.54545455 56.1481481 59.1818182 -28 59.1818182 -16.1481481 -9.54545455 68"></polygon>
                    <polygon id="Rectangle-Copy" fill="url(#linearGradient-7)" opacity="0.272209821" mask="url(#mask-6)" points="-9.54545455 72.472973 59.1818182 -11 59.1818182 -7.47297297 -9.54545455 76"></polygon>
                </g>
                <circle id="Oval" fill="#3A3A3A" cx="25.5" cy="81.5" r="3.5"></circle>
                <rect id="Rectangle-5" fill="#585858" x="20" y="4" width="11" height="2" rx="1"></rect>
                <g id="Group-2" filter="url(#filter-8)" transform="translate(27.000000, 66.000000)">
                    <path d="M0.000628973731,5.21599714 C0.000628973731,2.33528147 2.26897868,0 5.06712986,0 L32.9328847,0 C35.7310359,0 37.9993856,2.33528147 37.9993856,5.21599714 L37.9993856,27.2001211 C38.0261996,28.9504546 37.1738211,30.5911389 35.7447927,31.5398307 L21.8119153,41.1020575 C20.119061,42.2993142 17.8847534,42.2993142 16.1918992,41.1020575 L2.25902174,31.5398307 C0.827601746,30.5923508 -0.0265329611,28.9505591 0.000628973731,27.1988171 L0.000628973731,5.21599714 Z" id="矩形_955_拷贝_2" fill="url(#linearGradient-9)"></path>
                    <path d="M5.00050322,8.81141374 C5.00611844,6.70321977 6.6757465,4.99784714 8.73201583,5.00001431 L29.2629713,5.00001431 C30.2515009,4.9972423 31.2005983,5.39728427 31.9013847,6.11209847 C32.6021712,6.82691266 32.9972151,7.79791778 32.9995747,8.81141374 L32.9995747,24.18097 C33.0187273,25.4620831 32.3899094,26.6621311 31.337448,27.3530043 L21.0706976,34.3442669 C19.8219599,35.2185777 18.178118,35.2185777 16.9293803,34.3442669 L6.6549938,27.3530043 C5.6054484,26.6602623 4.97969428,25.4605496 5.00050322,24.18097 L5.00050322,8.81141374 Z" id="矩形_955_拷贝_2-2" fill="url(#linearGradient-10)" opacity="0.669587054"></path>
                    <rect id="矩形_956_拷贝" fill="#898D92" fill-rule="nonzero" opacity="0.17421875" x="15" y="13" width="9" height="3" rx="1.5"></rect>
                </g>
            </g>
        </g>
    </g>
</svg>