<?xml version="1.0" encoding="UTF-8"?>
<svg width="21px" height="20px" viewBox="0 0 21 20" version="1.1" xmlns="http://www.w3.org/2000/svg" xmlns:xlink="http://www.w3.org/1999/xlink">
    <!-- Generator: Sketch 48.2 (47327) - http://www.bohemiancoding.com/sketch -->
    <title>Group</title>
    <desc>Created with Sketch.</desc>
    <defs></defs>
    <g id="问题反馈" stroke="none" stroke-width="1" fill="none" fill-rule="evenodd" transform="translate(-135.000000, -517.000000)">
        <g id="Group" transform="translate(135.000000, 517.000000)" fill-rule="nonzero">
            <path d="M4.42105263,1.62162162 L4.42105263,1.35135135 C4.42105263,0.605020608 5.0396066,0 5.80263158,0 L9.11842105,0 C9.88144604,0 10.5,0.605020608 10.5,1.35135135 L10.5,1.62162162 L18.2368421,1.62162162 C19.7628921,1.62162162 21,2.83166284 21,4.32432432 L21,17.2972973 C21,18.7899588 19.7628921,20 18.2368421,20 L2.76315789,20 C1.23710793,20 0,18.7899588 0,17.2972973 L0,4.32432432 C0,2.83166284 1.23710793,1.62162162 2.76315789,1.62162162 L4.42105263,1.62162162 Z M16.8552632,6.48648649 C17.6182881,6.48648649 18.2368421,5.88146588 18.2368421,5.13513514 C18.2368421,4.38880439 17.6182881,3.78378378 16.8552632,3.78378378 C16.0922382,3.78378378 15.4736842,4.38880439 15.4736842,5.13513514 C15.4736842,5.88146588 16.0922382,6.48648649 16.8552632,6.48648649 Z" id="Combined-Shape" fill="#A5A7A9"></path>
            <path d="M10,17 C6.6862915,17 4,14.3137085 4,11 C4,7.6862915 6.6862915,5 10,5 C13.3137085,5 16,7.6862915 16,11 C16,14.3137085 13.3137085,17 10,17 Z M10,14.8181818 C12.1087236,14.8181818 13.8181818,13.1087236 13.8181818,11 C13.8181818,8.89127641 12.1087236,7.18181818 10,7.18181818 C7.89127641,7.18181818 6.18181818,8.89127641 6.18181818,11 C6.18181818,13.1087236 7.89127641,14.8181818 10,14.8181818 Z" id="椭圆_1207" fill="#FFFFFF"></path>
        </g>
    </g>
</svg>