<?xml version="1.0" encoding="UTF-8"?>
<svg width="72px" height="21px" viewBox="0 0 72 21" version="1.1" xmlns="http://www.w3.org/2000/svg" xmlns:xlink="http://www.w3.org/1999/xlink">
    <!-- Generator: Sketch 50.2 (55047) - http://www.bohemiancoding.com/sketch -->
    <title>Group</title>
    <desc>Created with Sketch.</desc>
    <defs></defs>
    <g id="注册登录" stroke="none" stroke-width="1" fill="none" fill-rule="evenodd">
        <g id="登录注册3" transform="translate(-208.000000, -25.000000)" fill="#FFFFFF">
            <g id="Group" transform="translate(208.000000, 25.000000)">
                <path d="M21.7101341,19.5856041 L21.7101341,20.492545 C21.7118098,20.7693509 21.5064858,20.9958567 21.2501341,21 L0.450134052,21 C0.199305232,20.9958574 -0.00154206382,20.7741853 0.000134051585,20.5033419 L0.000134051585,19.5748072 C-0.00281533333,19.4429947 0.0430067229,19.3153472 0.127460787,19.2201102 C0.211914851,19.1248733 0.328037772,19.069899 0.450134052,19.0673522 L15.0701341,19.0673522 L17.0501341,12.4380463 C17.1098728,12.2289427 17.2874843,12.0851185 17.4901341,12.0817481 L20.7901341,12.0817481 C20.942119,12.0848473 21.0835494,12.1662984 21.1705898,12.300856 C21.2576301,12.4354136 21.2797651,12.6068218 21.2301341,12.7619537 L19.3501341,19.0673522 L21.2501341,19.0673522 C21.5083124,19.0767161 21.7124505,19.3067052 21.7101341,19.5856041 Z M4.18013405,18.5059126 L1.69013405,18.5059126 C1.47593737,18.497548 1.29451362,18.3328293 1.25013405,18.1064267 L0.130134052,12.7079692 C0.0970959992,12.5581195 0.128746194,12.4001776 0.216200893,12.2784755 C0.303655592,12.1567733 0.437488265,12.0844288 0.580134052,12.0817481 L2.98013405,12.0817481 C3.19486336,12.0847972 3.3802432,12.2449196 3.43013405,12.470437 L4.62013405,17.8688946 C4.65720559,18.0185423 4.62879596,18.1782787 4.54302355,18.3024573 C4.45725113,18.4266359 4.32355268,18.5015944 4.18013405,18.5059126 Z M10.7101341,0.507455013 L10.7101341,1.05809769 C10.7125486,1.19159443 10.6651847,1.32054093 10.5786842,1.41596508 C10.4921837,1.51138922 10.3738008,1.56528852 10.2501341,1.5655527 L8.93013405,1.5655527 L9.68013405,3.33624679 C9.68180976,3.61305267 9.47648578,3.8395585 9.22013405,3.8437018 L7.26013405,3.8437018 C7.00195574,3.83433788 6.79781763,3.60434882 6.80013405,3.32544987 L6.05013405,1.5655527 L4.29013405,1.5655527 L4.06013405,3.40102828 C4.03086588,3.64770664 3.84033556,3.83513492 3.61013405,3.8437018 L0.620134052,3.8437018 C0.486607206,3.8426108 0.360139644,3.77879261 0.273714479,3.6688912 C0.187289314,3.55898979 0.149475157,3.41390132 0.170134052,3.2714653 L0.610134052,0.431876607 C0.640330862,0.187434307 0.831754986,0.00371963808 1.06013405,2.27373675e-13 L10.2501341,2.27373675e-13 C10.3738008,0.000264183225 10.4921837,0.0541634818 10.5786842,0.149587624 C10.6651847,0.245011766 10.7125486,0.373958271 10.7101341,0.507455013 Z M1.07013405,4.29717224 L20.6601341,4.29717224 C20.8853943,4.29962897 21.0758651,4.47785869 21.1101341,4.71825193 L21.7001341,8.35681234 C21.7270571,8.50359903 21.6924714,8.6557263 21.6056582,8.7723699 C21.518845,8.88901349 21.3886948,8.95822811 21.2501341,8.96143959 L17.7401341,8.96143959 C17.4999933,8.95489131 17.3023561,8.75542071 17.2801341,8.49717224 L17.0901341,6.34858612 L17.0301341,5.88431877 L5.15013405,5.88431877 L5.10013405,6.34858612 L4.90013405,8.49717224 C4.88478452,8.75899127 4.68311155,8.96253513 4.44013405,8.96143959 L0.630134052,8.96143959 C0.493979016,8.96031349 0.364998083,8.89535671 0.27670352,8.78344653 C0.188408956,8.67153636 0.149517496,8.52372093 0.170134052,8.37840617 L0.610134052,4.73984576 C0.640803086,4.48967045 0.836436106,4.30140619 1.07013405,4.29717224 Z M0.100134052,10.8508997 L0.100134052,9.92236504 C0.0984579362,9.65152165 0.299305232,9.42984957 0.550134052,9.42570694 L21.3501341,9.42570694 C21.6009629,9.42984957 21.8018102,9.65152165 21.8001341,9.92236504 L21.8001341,10.8508997 C21.8030834,10.9827122 21.7572614,11.1103597 21.6728073,11.2055967 C21.5883533,11.3008337 21.4722303,11.3558079 21.3501341,11.3583548 L0.550134052,11.3583548 C0.428037772,11.3558079 0.311914851,11.3008337 0.227460787,11.2055967 C0.143006723,11.1103597 0.0971846667,10.9827122 0.100134052,10.8508997 Z M11.1001341,12.470437 L12.3001341,17.8688946 C12.3351203,18.0201045 12.3045221,18.180287 12.2169793,18.3042122 C12.1294364,18.4281374 11.9944496,18.5023565 11.8501341,18.5059126 L9.37013405,18.5059126 C9.15362201,18.4982308 8.96896263,18.3343001 8.92013405,18.1064267 L7.81013405,12.7079692 C7.77506384,12.5578957 7.80591938,12.398746 7.89379413,12.2764593 C7.98166888,12.1541726 8.11678254,12.0823591 8.26013405,12.0817481 L10.6601341,12.0817481 C10.8725414,12.0854567 11.0547063,12.2463782 11.1001341,12.470437 Z M21.4501341,0.507455013 L21.4501341,1.05809769 C21.4518098,1.33490357 21.2464858,1.5614094 20.9901341,1.5655527 L19.6601341,1.5655527 L20.4301341,3.33624679 C20.4280942,3.61141453 20.224889,3.83558304 19.9701341,3.8437018 L18.0101341,3.8437018 C17.7519557,3.83433788 17.5478176,3.60434882 17.5501341,3.32544987 L16.7901341,1.5655527 L15.0201341,1.5655527 L14.8001341,3.40102828 C14.7663386,3.6493998 14.5725305,3.83590789 14.3401341,3.8437018 L11.3501341,3.8437018 C11.2181303,3.84023592 11.0939668,3.77529396 11.0096238,3.66560266 C10.9252807,3.55591136 10.8890029,3.41219336 10.9101341,3.2714653 L11.3501341,0.431876607 C11.3774376,0.185787966 11.5705799,0.000424282258 11.8001341,0 L20.9901341,0 C21.2464858,0.0041433006 21.4518098,0.230649125 21.4501341,0.507455013 Z" id="形状_5_拷贝_2"></path>
                <path d="M46.0503672,21 L25.4503672,21 C25.3282709,20.9975232 25.212148,20.9440608 25.127694,20.8514429 C25.0432399,20.7588249 24.9974178,20.6346878 25.0003672,20.5065002 L25.0003672,19.6245005 C24.9936086,19.3554541 25.1942295,19.1307587 25.4503672,19.1205007 L33.4603672,19.1205007 L33.4603672,13.041003 L25.4503672,13.041003 C25.1977122,13.0319002 24.9980485,12.8129358 25.0003672,12.5475032 L25.0003672,11.4240036 C24.9974178,11.295816 25.0432399,11.1716788 25.127694,11.0790609 C25.212148,10.986443 25.3282709,10.9329806 25.4503672,10.9305038 L33.4603672,10.9305038 L33.4603672,8.72550461 L25.4403672,8.72550461 C25.3208351,8.72330859 25.2070971,8.6710395 25.1244611,8.58032778 C25.0418251,8.48961606 24.9971467,8.36798714 25.0003672,8.24250479 L25.0003672,7.10850521 C24.9954769,6.98254117 25.0396008,6.85990823 25.1225927,6.76880574 C25.2055847,6.67770325 25.3203026,6.62597122 25.4403672,6.62550539 L46.3103672,6.62550539 C46.4298994,6.62770141 46.5436374,6.6799705 46.6262734,6.77068222 C46.7089093,6.86139394 46.7535878,6.98302286 46.7503672,7.10850521 L46.7503672,8.24250479 C46.753221,8.50236207 46.5577329,8.71695459 46.3103672,8.72550461 L38.2903672,8.72550461 L38.2903672,10.9305038 L46.3003672,10.9305038 C46.4224635,10.9329806 46.5385864,10.986443 46.6230405,11.0790609 C46.7074945,11.1716788 46.7533166,11.295816 46.7503672,11.4240036 L46.7503672,12.5475032 C46.7526859,12.8129358 46.5530222,13.0319002 46.3003672,13.041003 L38.2903672,13.041003 L38.2903672,19.1205007 L42.8461795,19.1205007 L42.0203672,15.1830022 C41.9805322,15.0349525 42.0072782,14.8759066 42.0929924,14.751134 C42.1787066,14.6263615 42.3140013,14.5495278 42.4603672,14.5425024 L45.5303672,14.5425024 C45.7409666,14.5414932 45.9239339,14.6943124 45.9703672,14.9100023 L46.9003672,19.9815004 C46.9874656,20.1974413 46.9711988,20.4440599 46.8565813,20.645332 C46.7419639,20.8466041 46.5427562,20.978366 46.3203672,21 L46.0503672,21 Z M29.4403672,3.20250668 L29.4403672,5.41800585 C29.4433166,5.54619341 29.3974945,5.6703306 29.3130405,5.76294852 C29.2285864,5.85556644 29.1124635,5.90902885 28.9903672,5.91150566 L25.4503672,5.91150566 C25.3282709,5.90902885 25.212148,5.85556644 25.127694,5.76294852 C25.0432399,5.6703306 24.9974178,5.54619341 25.0003672,5.41800585 L25.0003672,1.60650728 C24.9955101,1.47676686 25.0403899,1.35039704 25.1249645,1.25567349 C25.2095391,1.16094993 25.3267487,1.10577975 25.4503672,1.10250747 L33.3703672,1.10250747 L33.2803672,0.609007651 C33.2534389,0.462341158 33.2888011,0.310638119 33.3771973,0.193609368 C33.4655934,0.0765806168 33.5982227,0.00587754616 33.7403672,7.87980082e-06 L37.5503672,7.87980082e-06 C37.766527,-0.00128354334 37.9541174,0.156292325 38.0003672,0.378007738 L38.1903672,1.10250747 L46.3003672,1.10250747 C46.4224635,1.10498428 46.5385864,1.15844668 46.6230405,1.25106461 C46.7074945,1.34368253 46.7533166,1.46781971 46.7503672,1.59600728 L46.7503672,5.40750585 C46.7514987,5.68226681 46.5420103,5.90690968 46.2803672,5.91150566 L42.7703672,5.91150566 C42.5087242,5.90690968 42.2992357,5.68226681 42.3003672,5.40750585 L42.3003672,3.20250668 L29.4403672,3.20250668 Z" id="形状_6_拷贝_5-2"></path>
                <path d="M71.0503672,21 L50.4503672,21 C50.3282709,20.9975232 50.212148,20.9440608 50.127694,20.8514429 C50.0432399,20.7588249 49.9974178,20.6346878 50.0003672,20.5065002 L50.0003672,19.6245005 C49.9936086,19.3554541 50.1942295,19.1307587 50.4503672,19.1205007 L58.4603672,19.1205007 L58.4603672,13.041003 L50.4503672,13.041003 C50.1977122,13.0319002 49.9980485,12.8129358 50.0003672,12.5475032 L50.0003672,11.4240036 C49.9974178,11.295816 50.0432399,11.1716788 50.127694,11.0790609 C50.212148,10.986443 50.3282709,10.9329806 50.4503672,10.9305038 L58.4603672,10.9305038 L58.4603672,8.72550461 L50.4403672,8.72550461 C50.3208351,8.72330859 50.2070971,8.6710395 50.1244611,8.58032778 C50.0418251,8.48961606 49.9971467,8.36798714 50.0003672,8.24250479 L50.0003672,7.10850521 C49.9954769,6.98254117 50.0396008,6.85990823 50.1225927,6.76880574 C50.2055847,6.67770325 50.3203026,6.62597122 50.4403672,6.62550539 L71.3103672,6.62550539 C71.4298994,6.62770141 71.5436374,6.6799705 71.6262734,6.77068222 C71.7089093,6.86139394 71.7535878,6.98302286 71.7503672,7.10850521 L71.7503672,8.24250479 C71.753221,8.50236207 71.5577329,8.71695459 71.3103672,8.72550461 L63.2903672,8.72550461 L63.2903672,10.9305038 L71.3003672,10.9305038 C71.4224635,10.9329806 71.5385864,10.986443 71.6230405,11.0790609 C71.7074945,11.1716788 71.7533166,11.295816 71.7503672,11.4240036 L71.7503672,12.5475032 C71.7526859,12.8129358 71.5530222,13.0319002 71.3003672,13.041003 L63.2903672,13.041003 L63.2903672,19.1205007 L67.8461795,19.1205007 L67.0203672,15.1830022 C66.9805322,15.0349525 67.0072782,14.8759066 67.0929924,14.751134 C67.1787066,14.6263615 67.3140013,14.5495278 67.4603672,14.5425024 L70.5303672,14.5425024 C70.7409666,14.5414932 70.9239339,14.6943124 70.9703672,14.9100023 L71.9003672,19.9815004 C71.9874656,20.1974413 71.9711988,20.4440599 71.8565813,20.645332 C71.7419639,20.8466041 71.5427562,20.978366 71.3203672,21 L71.0503672,21 Z M54.4403672,3.20250668 L54.4403672,5.41800585 C54.4433166,5.54619341 54.3974945,5.6703306 54.3130405,5.76294852 C54.2285864,5.85556644 54.1124635,5.90902885 53.9903672,5.91150566 L50.4503672,5.91150566 C50.3282709,5.90902885 50.212148,5.85556644 50.127694,5.76294852 C50.0432399,5.6703306 49.9974178,5.54619341 50.0003672,5.41800585 L50.0003672,1.60650728 C49.9955101,1.47676686 50.0403899,1.35039704 50.1249645,1.25567349 C50.2095391,1.16094993 50.3267487,1.10577975 50.4503672,1.10250747 L58.3703672,1.10250747 L58.2803672,0.609007651 C58.2534389,0.462341158 58.2888011,0.310638119 58.3771973,0.193609368 C58.4655934,0.0765806168 58.5982227,0.00587754616 58.7403672,7.87980082e-06 L62.5503672,7.87980082e-06 C62.766527,-0.00128354334 62.9541174,0.156292325 63.0003672,0.378007738 L63.1903672,1.10250747 L71.3003672,1.10250747 C71.4224635,1.10498428 71.5385864,1.15844668 71.6230405,1.25106461 C71.7074945,1.34368253 71.7533166,1.46781971 71.7503672,1.59600728 L71.7503672,5.40750585 C71.7514987,5.68226681 71.5420103,5.90690968 71.2803672,5.91150566 L67.7703672,5.91150566 C67.5087242,5.90690968 67.2992357,5.68226681 67.3003672,5.40750585 L67.3003672,3.20250668 L54.4403672,3.20250668 Z" id="形状_6_拷贝_5-2-copy"></path>
            </g>
        </g>
    </g>
</svg>