<svg id="图层_1" data-name="图层 1" xmlns="http://www.w3.org/2000/svg" xmlns:xlink="http://www.w3.org/1999/xlink" viewBox="0 0 50 50"><defs><style>.cls-1,.cls-2,.cls-3,.cls-6{fill:none;}.cls-1{clip-rule:evenodd;}.cls-3{fill-rule:evenodd;}.cls-4{clip-path:url(#clip-path);}.cls-5{clip-path:url(#clip-path-2);}.cls-6{stroke:#344b63;stroke-miterlimit:10;stroke-width:4px;}.cls-7{clip-path:url(#clip-path-3);}.cls-8{isolation:isolate;}.cls-9{clip-path:url(#clip-path-5);}.cls-10{clip-path:url(#clip-path-6);}.cls-11{fill:#fff;}.cls-12{clip-path:url(#clip-path-9);}.cls-13{fill:#10c786;}.cls-14{clip-path:url(#clip-path-11);}.cls-15{clip-path:url(#clip-path-13);}.cls-16{clip-path:url(#clip-path-15);}.cls-17{clip-path:url(#clip-path-17);}.cls-18{clip-path:url(#clip-path-19);}.cls-19{clip-path:url(#clip-path-21);}.cls-20{clip-path:url(#clip-path-23);}.cls-21{clip-path:url(#clip-path-25);}.cls-22{fill:#c2c5c4;}.cls-23{clip-path:url(#clip-path-27);}.cls-24{clip-path:url(#clip-path-29);}.cls-25{clip-path:url(#clip-path-31);}.cls-26{clip-path:url(#clip-path-33);}.cls-27{clip-path:url(#clip-path-35);}.cls-28{clip-path:url(#clip-path-37);}.cls-29{clip-path:url(#clip-path-38);}.cls-30{clip-path:url(#clip-path-41);}.cls-31{clip-path:url(#clip-path-43);}.cls-32{clip-path:url(#clip-path-45);}.cls-33{clip-path:url(#clip-path-47);}.cls-34{clip-path:url(#clip-path-48);}.cls-35{clip-path:url(#clip-path-51);}.cls-36{clip-path:url(#clip-path-53);}.cls-37{fill:#344b63;}.cls-38{clip-path:url(#clip-path-55);}.cls-39{clip-path:url(#clip-path-57);}.cls-40{fill:#d8d8d8;opacity:0;}</style><clipPath id="clip-path"><path class="cls-1" d="M36,15.47V43.58c0,.78.12.65-.68.65H8.45c-.8,0-.69.13-.69-.65V6.42c0-.78-.11-.65.69-.65H25.1a2,2,0,0,1,1.35.52l9.25,8.44A1,1,0,0,1,36,15.47ZM-4.24-6.24H48V56.24H-4.24Z"/></clipPath><clipPath id="clip-path-2"><rect class="cls-2" x="-750" y="-147" width="1440" height="900"/></clipPath><clipPath id="clip-path-3"><path class="cls-1" d="M36,15.47V43.58c0,.78.12.65-.68.65H8.45c-.8,0-.69.13-.69-.65V6.42c0-.78-.11-.65.69-.65H25.1a2,2,0,0,1,1.35.52l9.25,8.44A1,1,0,0,1,36,15.47Z"/></clipPath><clipPath id="clip-path-5"><rect class="cls-2" x="-5" y="-14" width="63" height="71"/></clipPath><clipPath id="clip-path-6"><rect class="cls-2" x="7" y="5" width="30" height="40"/></clipPath><clipPath id="clip-path-9"><path class="cls-1" d="M45.29,15.31H28.86a3,3,0,0,1-2.12-.88,3,3,0,0,1-.88-2.12V-1.92l1.66-.75L46,13.56Z"/></clipPath><clipPath id="clip-path-11"><path class="cls-1" d="M26.86-1.92V12.31a2,2,0,0,0,2,2H45.29Zm-12-12H57.29V26.31H14.86Z"/></clipPath><clipPath id="clip-path-13"><rect class="cls-2" x="10.4" y="13.51" width="2.55" height="1.7"/></clipPath><clipPath id="clip-path-15"><rect class="cls-2" x="10.4" y="27.98" width="2.55" height="1.7"/></clipPath><clipPath id="clip-path-17"><rect class="cls-2" x="15.51" y="13.51" width="2.55" height="1.7"/></clipPath><clipPath id="clip-path-19"><rect class="cls-2" x="15.51" y="27.98" width="2.55" height="1.7"/></clipPath><clipPath id="clip-path-21"><rect class="cls-2" x="19.77" y="13.51" width="2.55" height="1.7"/></clipPath><clipPath id="clip-path-23"><rect class="cls-2" x="19.77" y="27.98" width="2.55" height="1.7"/></clipPath><clipPath id="clip-path-25"><rect class="cls-2" x="10.4" y="17.77" width="12.77" height="1.7"/></clipPath><clipPath id="clip-path-27"><rect class="cls-2" x="10.4" y="32.23" width="12.77" height="1.7"/></clipPath><clipPath id="clip-path-29"><rect class="cls-2" x="10.4" y="21.17" width="16.17" height="1.7"/></clipPath><clipPath id="clip-path-31"><rect class="cls-2" x="10.4" y="35.64" width="16.17" height="1.7"/></clipPath><clipPath id="clip-path-33"><path class="cls-1" d="M33.14,21.82c0,3.7,2.59,6.7,5.77,6.7s5.78-3,5.78-6.7Zm-12-12H56.69v30.7H21.14Z"/></clipPath><clipPath id="clip-path-35"><path class="cls-1" d="M33.14,21.82c0,3.7,2.59,6.7,5.77,6.7s5.78-3,5.78-6.7Z"/></clipPath><clipPath id="clip-path-37"><rect class="cls-2" x="21" y="9" width="36" height="32"/></clipPath><clipPath id="clip-path-38"><rect class="cls-2" x="33" y="21" width="12" height="8"/></clipPath><clipPath id="clip-path-41"><path class="cls-1" d="M29.84,25.39H48V30.6H29.84Z"/></clipPath><clipPath id="clip-path-43"><path class="cls-1" d="M33.14,37.54c0-3.7,2.59-6.7,5.77-6.7s5.78,3,5.78,6.7Zm-12,12H56.69V18.84H21.14Z"/></clipPath><clipPath id="clip-path-45"><path class="cls-1" d="M33.14,37.54c0-3.7,2.59-6.7,5.77-6.7s5.78,3,5.78,6.7Z"/></clipPath><clipPath id="clip-path-47"><rect class="cls-2" x="21" y="18" width="36" height="32"/></clipPath><clipPath id="clip-path-48"><rect class="cls-2" x="33" y="30" width="12" height="8"/></clipPath><clipPath id="clip-path-51"><rect class="cls-2" x="29.84" y="35.98" width="18.15" height="5.2"/></clipPath><clipPath id="clip-path-53"><path class="cls-1" d="M31.58,19.47H46.25a.75.75,0,0,1,0,1.5H31.58a.75.75,0,0,1,0-1.5Z"/></clipPath><clipPath id="clip-path-55"><path class="cls-1" d="M31.58,38.39H46.25a.75.75,0,0,1,0,1.5H31.58a.75.75,0,0,1,0-1.5Z"/></clipPath><clipPath id="clip-path-57"><rect class="cls-2" x="2" width="50" height="50"/></clipPath></defs><title>画板 1</title><g class="cls-4"><g class="cls-5"><path class="cls-6" d="M36,15.47V43.58c0,.78.12.65-.68.65H8.45c-.8,0-.69.13-.69-.65V6.42c0-.78-.11-.65.69-.65H25.1a2,2,0,0,1,1.35.52l9.25,8.44A1,1,0,0,1,36,15.47Z"/></g></g><g class="cls-7"><g class="cls-5"><g class="cls-8"><g class="cls-9"><g class="cls-10"><rect class="cls-11" x="2.76" y="0.76" width="38.27" height="48.48"/></g><g class="cls-4"><g class="cls-10"><path class="cls-6" d="M36,15.47V43.58c0,.78.12.65-.68.65H8.45c-.8,0-.69.13-.69-.65V6.42c0-.78-.11-.65.69-.65H25.1a2,2,0,0,1,1.35.52l9.25,8.44A1,1,0,0,1,36,15.47Z"/></g></g><g class="cls-12"><g class="cls-10"><rect class="cls-13" x="21.86" y="-6.92" width="28.43" height="26.23"/></g></g><g class="cls-14"><g class="cls-10"><path class="cls-6" d="M26.86-1.92V12.31a2,2,0,0,0,2,2H45.29Z"/></g></g></g></g></g></g><g class="cls-15"><g class="cls-5"><rect class="cls-13" x="5.4" y="8.51" width="12.55" height="11.7"/></g></g><g class="cls-16"><g class="cls-5"><rect class="cls-13" x="5.4" y="22.98" width="12.55" height="11.7"/></g></g><g class="cls-17"><g class="cls-5"><rect class="cls-13" x="10.51" y="8.51" width="12.55" height="11.7"/></g></g><g class="cls-18"><g class="cls-5"><rect class="cls-13" x="10.51" y="22.98" width="12.55" height="11.7"/></g></g><g class="cls-19"><g class="cls-5"><rect class="cls-13" x="14.77" y="8.51" width="12.55" height="11.7"/></g></g><g class="cls-20"><g class="cls-5"><rect class="cls-13" x="14.77" y="22.98" width="12.55" height="11.7"/></g></g><g class="cls-21"><g class="cls-5"><rect class="cls-22" x="5.4" y="12.77" width="22.77" height="11.7"/></g></g><g class="cls-23"><g class="cls-5"><rect class="cls-22" x="5.4" y="27.23" width="22.77" height="11.7"/></g></g><g class="cls-24"><g class="cls-5"><rect class="cls-22" x="5.4" y="16.17" width="26.17" height="11.7"/></g></g><g class="cls-25"><g class="cls-5"><rect class="cls-22" x="5.4" y="30.64" width="26.17" height="11.7"/></g></g><g class="cls-26"><g class="cls-5"><path class="cls-6" d="M33.14,21.82c0,3.7,2.59,6.7,5.77,6.7s5.78-3,5.78-6.7Z"/></g></g><g class="cls-27"><g class="cls-5"><g class="cls-8"><g class="cls-28"><g class="cls-29"><rect class="cls-11" x="28.14" y="16.82" width="21.55" height="16.69"/></g><g class="cls-26"><g class="cls-29"><path class="cls-6" d="M33.14,21.82c0,3.7,2.59,6.7,5.77,6.7s5.78-3,5.78-6.7Z"/></g></g><g class="cls-30"><g class="cls-29"><rect class="cls-13" x="24.84" y="20.39" width="28.15" height="15.2"/></g></g></g></g></g></g><g class="cls-31"><g class="cls-5"><path class="cls-6" d="M33.14,37.54c0-3.7,2.59-6.7,5.77-6.7s5.78,3,5.78,6.7Z"/></g></g><g class="cls-32"><g class="cls-5"><g class="cls-8"><g class="cls-33"><g class="cls-34"><rect class="cls-11" x="28.14" y="25.84" width="21.55" height="16.69"/></g><g class="cls-31"><g class="cls-34"><path class="cls-6" d="M33.14,37.54c0-3.7,2.59-6.7,5.77-6.7s5.78,3,5.78,6.7Z"/></g></g><g class="cls-35"><g class="cls-34"><rect class="cls-13" x="24.84" y="30.98" width="28.15" height="15.2"/></g></g></g></g></g></g><g class="cls-36"><g class="cls-5"><rect class="cls-37" x="25.83" y="14.47" width="26.17" height="11.51"/></g></g><g class="cls-38"><g class="cls-5"><rect class="cls-37" x="25.83" y="33.39" width="26.17" height="11.51"/></g></g><g class="cls-39"><g class="cls-5"><rect class="cls-40" x="-3" y="-5" width="60" height="60"/></g></g></svg>