<?xml version="1.0" encoding="UTF-8"?>
<svg width="58px" height="58px" viewBox="0 0 58 58" version="1.1" xmlns="http://www.w3.org/2000/svg" xmlns:xlink="http://www.w3.org/1999/xlink">
    <!-- Generator: Sketch 48.2 (47327) - http://www.bohemiancoding.com/sketch -->
    <title>消息中心图标2</title>
    <desc>Created with Sketch.</desc>
    <defs>
        <linearGradient x1="50%" y1="0%" x2="50%" y2="100%" id="linearGradient-1">
            <stop stop-color="#34CF90" offset="0%"></stop>
            <stop stop-color="#26A976" offset="100%"></stop>
        </linearGradient>
    </defs>
    <g id="消息中心" stroke="none" stroke-width="1" fill="none" fill-rule="evenodd" transform="translate(-145.000000, -167.000000)">
        <g id="消息中心图标2" transform="translate(145.000000, 167.000000)">
            <rect id="Rectangle-23-Copy-3" fill="url(#linearGradient-1)" x="0" y="0" width="58" height="58" rx="6"></rect>
            <path d="M42.8785075,39.2430796 L42.8785075,40.3659091 C42.8785075,40.716242 42.6139122,41 42.2880003,41 L15.5754941,41 C15.2579982,41 15,40.7226659 15,40.3806011 L15,39.227066 C15,38.885831 15.2579982,38.6085892 15.5754941,38.6085892 L34.3564601,38.6085892 L36.9006507,30.3941771 C36.9807722,30.1347009 37.2062162,29.9595344 37.4609466,29.9595344 L41.7064948,29.9595344 C42.1099695,29.9595344 42.3948804,30.3851099 42.2671606,30.7959934 L39.848316,38.6085892 L42.2880003,38.6085892 C42.6139122,38.6085892 42.8785075,38.8927467 42.8785075,39.2430796 Z M20.365246,37.9053108 L17.1703414,37.9053108 C16.8975151,37.9053108 16.6605723,37.7024201 16.5999956,37.417863 L15.1648673,30.7311397 C15.0810464,30.3362698 15.3595451,29.9595344 15.7365079,29.9595344 L18.82817,29.9595344 C19.0982527,29.9595344 19.3326676,30.1571384 19.3972519,30.4387448 L20.9341121,37.1237162 C21.0254242,37.5212294 20.7456615,37.9053108 20.365246,37.9053108 Z M28.75683,15.6327385 L28.75683,16.312688 C28.75683,16.662191 28.4931287,16.9463485 28.1679875,16.9463485 L26.4625915,16.9463485 L27.4276261,19.1301353 C27.4245125,19.4787163 27.1621368,19.7586014 26.8387836,19.7586014 L24.3236945,19.7586014 C23.9974435,19.7586014 23.7328482,19.4722002 23.7354069,19.120146 L22.7708963,16.9463485 L20.5044954,16.9463485 L20.2104286,19.213523 C20.1701675,19.5258351 19.9211402,19.7586014 19.6272584,19.7586014 L15.7891926,19.7586014 C15.4369538,19.7586014 15.1670561,19.4233601 15.2161031,19.0487762 L15.7805917,15.543726 C15.8215927,15.2318443 16.0688011,15 16.362313,15 L28.1679875,15 C28.4931287,15 28.75683,15.2833277 28.75683,15.6327385 Z M16.3727328,20.3207693 L41.528649,20.3207693 C41.8166426,20.3207693 42.0634811,20.5427472 42.114902,20.8475903 L42.8728352,25.3471458 C42.9390534,25.7402637 42.657811,26.1027374 42.2858115,26.1027374 L37.7895714,26.1027374 C37.4836359,26.1027374 37.2278265,25.8536501 37.1972453,25.5279062 L36.9414359,22.8662307 L36.8691755,22.2904774 L21.611708,22.2904774 L21.5449349,22.8662307 L21.2903894,25.5279062 C21.2594691,25.8536501 21.0027349,26.1027374 20.6973543,26.1027374 L15.8049457,26.1027374 C15.443366,26.1027374 15.1648673,25.7597505 15.2139144,25.3747778 L15.7815165,20.8766361 C15.8223326,20.5578387 16.0750284,20.3207693 16.3727328,20.3207693 Z M15.1214925,28.4310158 L15.1214925,27.2908202 C15.1214925,26.9443909 15.3813404,26.6654278 15.7032138,26.6654278 L42.4186486,26.6654278 C42.7397822,26.6654278 43,26.9443909 43,27.2908202 L43,28.4310158 C43,28.7774452 42.7397822,29.0564083 42.4186486,29.0564083 L15.7032138,29.0564083 C15.3813404,29.0564083 15.1214925,28.7774452 15.1214925,28.4310158 Z M29.259108,30.4404661 L30.7941493,37.120243 C30.8861704,37.5195081 30.605298,37.9053108 30.2228787,37.9053108 L27.0334922,37.9053108 C26.7591861,37.9053108 26.5213186,37.7015903 26.4598478,37.4143898 L25.0274324,30.7354121 C24.9421626,30.3379911 25.222326,29.9595344 25.6007377,29.9595344 L28.6876524,29.9595344 C28.958105,29.9595344 29.1941537,30.1580605 29.259108,30.4404661 Z M42.5456593,15.6327385 L42.5456593,16.312688 C42.5456593,16.662191 42.2828828,16.9463485 41.9577416,16.9463485 L40.2517908,16.9463485 L41.2329484,19.1301353 C41.2310987,19.4787163 40.9677981,19.7586014 40.6442908,19.7586014 L38.1288317,19.7586014 C37.8023649,19.7586014 37.5383245,19.4722002 37.5410682,19.120146 L36.5600956,16.9463485 L34.2949585,16.9463485 L34.0001828,19.213523 C33.9593667,19.5258351 33.7107094,19.7586014 33.4177524,19.7586014 L29.5783919,19.7586014 C29.226153,19.7586014 28.9558854,19.4233601 29.0058573,19.0487762 L29.5690819,15.543726 C29.6107919,15.2318443 29.8596651,15 30.1520671,15 L41.9577416,15 C42.2828828,15 42.5456593,15.2833277 42.5456593,15.6327385 Z" id="Combined-shape-199-Copy-4" fill="#FFFFFF"></path>
        </g>
    </g>
</svg>