<?xml version="1.0" encoding="UTF-8"?>
<svg width="31px" height="31px" viewBox="0 0 31 31" version="1.1" xmlns="http://www.w3.org/2000/svg" xmlns:xlink="http://www.w3.org/1999/xlink">
    <!-- Generator: Sketch 48.2 (47327) - http://www.bohemiancoding.com/sketch -->
    <title>消息中心图标1</title>
    <desc>Created with Sketch.</desc>
    <defs>
        <linearGradient x1="50%" y1="0%" x2="50%" y2="100%" id="linearGradient-1">
            <stop stop-color="#34CF90" offset="0%"></stop>
            <stop stop-color="#26A976" offset="100%"></stop>
        </linearGradient>
    </defs>
    <g id="首页（消息中心）" stroke="none" stroke-width="1" fill="none" fill-rule="evenodd" transform="translate(-1074.000000, -321.000000)">
        <g id="消息中心图标1" transform="translate(1074.000000, 321.000000)">
            <rect id="Rectangle-23-Copy-3" fill="url(#linearGradient-1)" x="0" y="0" width="31" height="31" rx="6"></rect>
            <path d="M22.9349147,21.0539659 L22.9349147,21.6585665 C22.9349147,21.8472072 22.7931672,22 22.6185716,22 L8.3083004,22 C8.13821331,22 8,21.8506663 8,21.6664775 L8,21.0453432 C8,20.8616013 8.13821331,20.7123172 8.3083004,20.7123172 L18.3695322,20.7123172 L19.7324914,16.2891723 C19.7754137,16.1494543 19.8961873,16.0551339 20.03265,16.0551339 L22.3070508,16.0551339 C22.5231979,16.0551339 22.6758288,16.2842899 22.6074075,16.5055349 L21.3115979,20.7123172 L22.6185716,20.7123172 C22.7931672,20.7123172 22.9349147,20.8653251 22.9349147,21.0539659 Z M10.8742389,20.3336289 L9.1626829,20.3336289 C9.01652592,20.3336289 8.8895923,20.2243801 8.8571405,20.071157 L8.08832175,16.4706137 C8.04341771,16.2579915 8.19261343,16.0551339 8.39455779,16.0551339 L10.0508054,16.0551339 C10.1954925,16.0551339 10.3210719,16.1615361 10.3556707,16.3131703 L11.1789886,19.9127702 C11.2279058,20.1268158 11.078033,20.3336289 10.8742389,20.3336289 Z M15.3697304,8.34070533 L15.3697304,8.70683198 C15.3697304,8.89502591 15.2284618,9.04803382 15.054279,9.04803382 L14.140674,9.04803382 L14.6576569,10.223919 C14.6559889,10.4116164 14.5154304,10.5623239 14.3422055,10.5623239 L12.9948363,10.5623239 C12.820059,10.5623239 12.6783115,10.4081078 12.6796823,10.2185402 L12.1629802,9.04803382 L10.9488368,9.04803382 L10.791301,10.2688201 C10.7697326,10.4369881 10.6363251,10.5623239 10.4788884,10.5623239 L8.42278177,10.5623239 C8.23408238,10.5623239 8.08949431,10.3818093 8.11576954,10.1801103 L8.41817411,8.29277554 C8.44013895,8.12483923 8.57257203,8 8.72981052,8 L15.054279,8 C15.2284618,8 15.3697304,8.15256105 15.3697304,8.34070533 Z M8.73539256,10.8650296 L22.2117762,10.8650296 C22.3660586,10.8650296 22.4982935,10.9845562 22.5258403,11.1487025 L22.931876,13.57154 C22.96735,13.7832189 22.8166845,13.9783971 22.617399,13.9783971 L20.208699,13.9783971 C20.044805,13.9783971 19.9077642,13.8442731 19.8913814,13.6688726 L19.7543407,12.2356627 L19.7156297,11.9256417 L11.5419864,11.9256417 L11.5062151,12.2356627 L11.3698515,13.6688726 C11.353287,13.8442731 11.2157508,13.9783971 11.0521541,13.9783971 L8.43122089,13.9783971 C8.23751748,13.9783971 8.08832175,13.7937118 8.11459698,13.5864188 L8.41866956,11.1643425 C8.4405353,10.9926824 8.57590804,10.8650296 8.73539256,10.8650296 Z M8.06508527,15.2320854 L8.06508527,14.618134 C8.06508527,14.4315951 8.20428947,14.2813842 8.37672168,14.2813842 L22.6885618,14.2813842 C22.8605976,14.2813842 23,14.4315951 23,14.618134 L23,15.2320854 C23,15.4186243 22.8605976,15.5688352 22.6885618,15.5688352 L8.37672168,15.5688352 C8.20428947,15.5688352 8.06508527,15.4186243 8.06508527,15.2320854 Z M15.6388078,16.3140971 L16.4611514,19.9109001 C16.5104484,20.125889 16.3599811,20.3336289 16.1551136,20.3336289 L14.4465137,20.3336289 C14.299564,20.3336289 14.1721349,20.2239332 14.1392042,20.0692868 L13.3718388,16.4729142 C13.3261585,16.2589183 13.4762461,16.0551339 13.6789666,16.0551339 L15.3326709,16.0551339 C15.4775562,16.0551339 15.6040109,16.1620326 15.6388078,16.3140971 Z M22.7566032,8.34070533 L22.7566032,8.70683198 C22.7566032,8.89502591 22.6158301,9.04803382 22.4416473,9.04803382 L21.5277451,9.04803382 L22.0533652,10.223919 C22.0523743,10.4116164 21.9113204,10.5623239 21.7380129,10.5623239 L20.3904456,10.5623239 C20.2155526,10.5623239 20.0741024,10.4081078 20.0755722,10.2185402 L19.5500512,9.04803382 L18.3365849,9.04803382 L18.1786693,10.2688201 C18.1568036,10.4369881 18.0235943,10.5623239 17.8666531,10.5623239 L15.8098528,10.5623239 C15.6211534,10.5623239 15.4763672,10.3818093 15.5031378,10.1801103 L15.8048653,8.29277554 C15.82721,8.12483923 15.9605349,8 16.1171788,8 L22.4416473,8 C22.6158301,8 22.7566032,8.15256105 22.7566032,8.34070533 Z" id="Combined-shape-199-Copy-4" fill="#FFFFFF"></path>
        </g>
    </g>
</svg>