<svg id="图层_1" data-name="图层 1" xmlns="http://www.w3.org/2000/svg" xmlns:xlink="http://www.w3.org/1999/xlink" viewBox="0 0 50 50"><defs><style>.cls-1,.cls-2,.cls-26,.cls-3,.cls-6{fill:none;}.cls-1{clip-rule:evenodd;}.cls-3{fill-rule:evenodd;}.cls-4{clip-path:url(#clip-path);}.cls-5{clip-path:url(#clip-path-2);}.cls-26,.cls-6{stroke:#344b63;}.cls-6{stroke-miterlimit:10;stroke-width:4px;}.cls-7{clip-path:url(#clip-path-3);}.cls-8{isolation:isolate;}.cls-9{clip-path:url(#clip-path-5);}.cls-10{clip-path:url(#clip-path-6);}.cls-11{fill:#fff;}.cls-12{clip-path:url(#clip-path-9);}.cls-13{fill:#10c786;}.cls-14{clip-path:url(#clip-path-11);}.cls-15{clip-path:url(#clip-path-13);}.cls-16{clip-path:url(#clip-path-15);}.cls-17{clip-path:url(#clip-path-17);}.cls-18{clip-path:url(#clip-path-19);}.cls-19{clip-path:url(#clip-path-21);}.cls-20{clip-path:url(#clip-path-23);}.cls-21{clip-path:url(#clip-path-25);}.cls-22{fill:#c2c5c4;}.cls-23{clip-path:url(#clip-path-27);}.cls-24{clip-path:url(#clip-path-29);}.cls-25{clip-path:url(#clip-path-31);}.cls-26{stroke-linejoin:round;stroke-width:2px;}.cls-27{clip-path:url(#clip-path-34);}.cls-28{clip-path:url(#clip-path-36);}.cls-29{clip-path:url(#clip-path-37);}.cls-30{clip-path:url(#clip-path-38);}.cls-31{fill:#344b63;}.cls-32{clip-path:url(#clip-path-40);}.cls-33{fill:#d8d8d8;opacity:0;}</style><clipPath id="clip-path"><path class="cls-1" d="M35,15.47V43.58c0,.78.12.65-.68.65H7.45c-.8,0-.69.13-.69-.65V6.42c0-.78-.11-.65.69-.65H24.1a2,2,0,0,1,1.35.52l9.25,8.44A1,1,0,0,1,35,15.47ZM-5.24-6.24H47V56.24H-5.24Z"/></clipPath><clipPath id="clip-path-2"><rect class="cls-2" x="-553" y="-146" width="1440" height="900"/></clipPath><clipPath id="clip-path-3"><path class="cls-1" d="M35,15.47V43.58c0,.78.12.65-.68.65H7.45c-.8,0-.69.13-.69-.65V6.42c0-.78-.11-.65.69-.65H24.1a2,2,0,0,1,1.35.52l9.25,8.44A1,1,0,0,1,35,15.47Z"/></clipPath><clipPath id="clip-path-5"><rect class="cls-2" x="-6" y="-14" width="63" height="71"/></clipPath><clipPath id="clip-path-6"><rect class="cls-2" x="6" y="5" width="30" height="40"/></clipPath><clipPath id="clip-path-9"><path class="cls-1" d="M44.29,15.31H27.86a3,3,0,0,1-2.12-.88,3,3,0,0,1-.88-2.12V-1.92l1.66-.75L45,13.56Z"/></clipPath><clipPath id="clip-path-11"><path class="cls-1" d="M25.86-1.92V12.31a2,2,0,0,0,2,2H44.29Zm-12-12H56.29V26.31H13.86Z"/></clipPath><clipPath id="clip-path-13"><rect class="cls-2" x="10.26" y="13.51" width="3.4" height="1.7"/></clipPath><clipPath id="clip-path-15"><rect class="cls-2" x="10.26" y="27.98" width="3.4" height="1.7"/></clipPath><clipPath id="clip-path-17"><rect class="cls-2" x="14.51" y="13.51" width="3.4" height="1.7"/></clipPath><clipPath id="clip-path-19"><rect class="cls-2" x="14.51" y="27.98" width="3.4" height="1.7"/></clipPath><clipPath id="clip-path-21"><rect class="cls-2" x="18.77" y="13.51" width="3.4" height="1.7"/></clipPath><clipPath id="clip-path-23"><rect class="cls-2" x="18.77" y="27.98" width="3.4" height="1.7"/></clipPath><clipPath id="clip-path-25"><rect class="cls-2" x="10.26" y="16.91" width="11.91" height="1.7"/></clipPath><clipPath id="clip-path-27"><rect class="cls-2" x="10.26" y="32.23" width="11.91" height="1.7"/></clipPath><clipPath id="clip-path-29"><rect class="cls-2" x="10.26" y="21.17" width="22.13" height="1.7"/></clipPath><clipPath id="clip-path-31"><rect class="cls-2" x="10.26" y="35.64" width="22.13" height="1.7"/></clipPath><clipPath id="clip-path-34"><path class="cls-1" d="M41.74,22H46V41.75A2,2,0,0,1,45.53,43l-1.66,2-1.65-2a2,2,0,0,1-.48-1.29Z"/></clipPath><clipPath id="clip-path-36"><rect class="cls-2" x="36" y="17" width="15" height="33"/></clipPath><clipPath id="clip-path-37"><rect class="cls-2" x="41" y="22" width="5" height="24"/></clipPath><clipPath id="clip-path-38"><rect class="cls-2" x="40.89" y="41.94" width="5.96" height="3.06"/></clipPath><clipPath id="clip-path-40"><rect class="cls-2" x="1" width="50" height="50"/></clipPath></defs><title>画板 1</title><g class="cls-4"><g class="cls-5"><path class="cls-6" d="M35,15.47V43.58c0,.78.12.65-.68.65H7.45c-.8,0-.69.13-.69-.65V6.42c0-.78-.11-.65.69-.65H24.1a2,2,0,0,1,1.35.52l9.25,8.44A1,1,0,0,1,35,15.47Z"/></g></g><g class="cls-7"><g class="cls-5"><g class="cls-8"><g class="cls-9"><g class="cls-10"><rect class="cls-11" x="1.76" y="0.76" width="38.27" height="48.48"/></g><g class="cls-4"><g class="cls-10"><path class="cls-6" d="M35,15.47V43.58c0,.78.12.65-.68.65H7.45c-.8,0-.69.13-.69-.65V6.42c0-.78-.11-.65.69-.65H24.1a2,2,0,0,1,1.35.52l9.25,8.44A1,1,0,0,1,35,15.47Z"/></g></g><g class="cls-12"><g class="cls-10"><rect class="cls-13" x="20.86" y="-6.92" width="28.43" height="26.23"/></g></g><g class="cls-14"><g class="cls-10"><path class="cls-6" d="M25.86-1.92V12.31a2,2,0,0,0,2,2H44.29Z"/></g></g></g></g></g></g><g class="cls-15"><g class="cls-5"><rect class="cls-13" x="5.26" y="8.51" width="13.4" height="11.7"/></g></g><g class="cls-16"><g class="cls-5"><rect class="cls-13" x="5.26" y="22.98" width="13.4" height="11.7"/></g></g><g class="cls-17"><g class="cls-5"><rect class="cls-13" x="9.51" y="8.51" width="13.4" height="11.7"/></g></g><g class="cls-18"><g class="cls-5"><rect class="cls-13" x="9.51" y="22.98" width="13.4" height="11.7"/></g></g><g class="cls-19"><g class="cls-5"><rect class="cls-13" x="13.77" y="8.51" width="13.4" height="11.7"/></g></g><g class="cls-20"><g class="cls-5"><rect class="cls-13" x="13.77" y="22.98" width="13.4" height="11.7"/></g></g><g class="cls-21"><g class="cls-5"><rect class="cls-22" x="5.26" y="11.91" width="21.91" height="11.7"/></g></g><g class="cls-23"><g class="cls-5"><rect class="cls-22" x="5.26" y="27.23" width="21.91" height="11.7"/></g></g><g class="cls-24"><g class="cls-5"><rect class="cls-22" x="5.26" y="16.17" width="32.13" height="11.7"/></g></g><g class="cls-25"><g class="cls-5"><rect class="cls-22" x="5.26" y="30.64" width="32.13" height="11.7"/></g></g><g class="cls-5"><path class="cls-26" d="M41.74,22H46V41.75A2,2,0,0,1,45.53,43l-1.66,2-1.65-2a2,2,0,0,1-.48-1.29Z"/></g><g class="cls-27"><g class="cls-5"><g class="cls-8"><g class="cls-28"><g class="cls-29"><rect class="cls-13" x="36.74" y="17.02" width="14.26" height="32.98"/><path class="cls-26" d="M41.74,22H46V41.75A2,2,0,0,1,45.53,43l-1.66,2-1.65-2a2,2,0,0,1-.48-1.29Z"/></g><g class="cls-30"><g class="cls-29"><rect class="cls-31" x="35.89" y="36.94" width="15.96" height="13.06"/></g></g></g></g></g></g><g class="cls-32"><g class="cls-5"><rect class="cls-33" x="-4" y="-5" width="60" height="60"/></g></g></svg>