<?xml version="1.0" encoding="UTF-8"?>
<svg width="30px" height="30px" viewBox="0 0 30 30" version="1.1" xmlns="http://www.w3.org/2000/svg" xmlns:xlink="http://www.w3.org/1999/xlink">
    <!-- Generator: Sketch 48.2 (47327) - http://www.bohemiancoding.com/sketch -->
    <title>打印</title>
    <desc>Created with Sketch.</desc>
    <defs></defs>
    <g id="Custom-Preset" stroke="none" stroke-width="1" fill="none" fill-rule="evenodd" transform="translate(-1098.000000, -114.000000)">
        <g id="打印" transform="translate(1099.000000, 115.000000)">
            <rect id="圆角矩形_1327_拷贝_3" fill="#FFFFFF" fill-rule="nonzero" x="9" y="18" width="10" height="2" rx="1"></rect>
            <rect id="圆角矩形_1327_拷贝_4" fill="#FFFFFF" fill-rule="nonzero" x="9" y="22" width="10" height="2" rx="1"></rect>
            <path d="M5,21 L1,21 C0.44771525,21 0,20.4403559 0,19.75 L0,7.25 C0,6.55964406 0.44771525,6 1,6 L27,6 C27.5522847,6 28,6.55964406 28,7.25 L28,19.75 C28,20.4403559 27.5522847,21 27,21 L22.07,21" id="矩形_1330" stroke="#FFFFFF" stroke-width="2"></path>
            <path d="M7,14 L21,14 C21.5522847,14 22,14.4477153 22,15 L22,27 C22,27.5522847 21.5522847,28 21,28 L7,28 C6.44771525,28 6,27.5522847 6,27 L6,15 C6,14.4477153 6.44771525,14 7,14 Z" id="矩形_1331" stroke="#FFFFFF" stroke-width="2" stroke-linejoin="round"></path>
            <path d="M6,4.41 L6,1 C6,0.44771525 6.44771525,0 7,0 L21,0 C21.5522847,0 22,0.44771525 22,1 L22,4.41" id="矩形_1331_拷贝" stroke="#FFFFFF" stroke-width="2"></path>
        </g>
    </g>
</svg>