<svg xmlns="http://www.w3.org/2000/svg" width="43" height="38.156" viewBox="0 0 43 38.156">
  <metadata><?xpacket begin="﻿" id="W5M0MpCehiHzreSzNTczkc9d"?>
<x:xmpmeta xmlns:x="adobe:ns:meta/" x:xmptk="Adobe XMP Core 5.6-c140 79.160451, 2017/05/06-01:08:21        ">
   <rdf:RDF xmlns:rdf="http://www.w3.org/1999/02/22-rdf-syntax-ns#">
      <rdf:Description rdf:about=""/>
   </rdf:RDF>
</x:xmpmeta>
                                                                                                    
                                                                                                    
                                                                                                    
                                                                                                    
                                                                                                    
                                                                                                    
                                                                                                    
                                                                                                    
                                                                                                    
                                                                                                    
                                                                                                    
                                                                                                    
                                                                                                    
                                                                                                    
                                                                                                    
                                                                                                    
                                                                                                    
                                                                                                    
                                                                                                    
                                                                                                    
                           
<?xpacket end="w"?></metadata>
<defs>
    <style>
      .cls-1 {
        fill: #11bd80;
        fill-rule: evenodd;
      }
    </style>
  </defs>
  <path id="微信支付" class="cls-1" d="M374.5,628a25,25,0,0,1-8.587-1.5,0.991,0.991,0,0,1-.318.306l-4.859,3.205a1,1,0,0,1-1.488-.993l1.489-5.192C356.011,620.521,353,615.557,353,610c0-9.941,9.626-18,21.5-18s21.5,8.059,21.5,18S386.374,628,374.5,628Zm19.528-27.8a1,1,0,0,0-1.061-1.684L368.5,609.749a0.973,0.973,0,0,1-.978-0.046L363.2,606a1,1,0,0,0-1.411,1.323l4.651,8.636a1,1,0,0,0,1.5.316Z" transform="translate(-353 -592)"/>
</svg>
