<svg xmlns="http://www.w3.org/2000/svg" width="40" height="40" viewBox="0 0 40 40">
  <metadata><?xpacket begin="﻿" id="W5M0MpCehiHzreSzNTczkc9d"?>
<x:xmpmeta xmlns:x="adobe:ns:meta/" x:xmptk="Adobe XMP Core 5.6-c140 79.160451, 2017/05/06-01:08:21        ">
   <rdf:RDF xmlns:rdf="http://www.w3.org/1999/02/22-rdf-syntax-ns#">
      <rdf:Description rdf:about=""/>
   </rdf:RDF>
</x:xmpmeta>
                                                                                                    
                                                                                                    
                                                                                                    
                                                                                                    
                                                                                                    
                                                                                                    
                                                                                                    
                                                                                                    
                                                                                                    
                                                                                                    
                                                                                                    
                                                                                                    
                                                                                                    
                                                                                                    
                                                                                                    
                                                                                                    
                                                                                                    
                                                                                                    
                                                                                                    
                                                                                                    
                           
<?xpacket end="w"?></metadata>
<defs>
    <style>
      .cls-1 {
        fill: #01aaef;
        fill-rule: evenodd;
      }
    </style>
  </defs>
  <path id="支付宝" class="cls-1" d="M394,728.382V708.689A7.692,7.692,0,0,0,386.308,701H361.691A7.692,7.692,0,0,0,354,708.689v24.617A7.693,7.693,0,0,0,361.691,741h24.617a7.7,7.7,0,0,0,7.572-6.338c-2.039-.877-10.881-4.694-15.486-6.9-3.5,4.244-7.174,6.791-12.707,6.791s-9.225-3.4-8.78-7.577c0.292-2.739,2.17-7.211,10.323-6.442A36.99,36.99,0,0,1,377,722.9a27.649,27.649,0,0,0,2.226-5.439H363.692v-1.538h7.687v-2.77H362v-1.692h9.378V707.47a0.751,0.751,0,0,1,.775-0.626H376v4.615h10v1.692H376v2.77h8.154a31.423,31.423,0,0,1-3.308,8.309c2.371,0.855,13.154,4.152,13.154,4.152h0Zm-28.922,3.538c-5.846,0-6.77-3.692-6.462-5.23s2-3.538,5.25-3.538a24.361,24.361,0,0,1,11.095,2.909c-2.817,3.671-6.285,5.859-9.883,5.859h0Z" transform="translate(-354 -701)"/>
</svg>
