<?xml version="1.0" encoding="UTF-8"?>
<svg width="171px" height="151px" viewBox="0 0 171 151" version="1.1" xmlns="http://www.w3.org/2000/svg" xmlns:xlink="http://www.w3.org/1999/xlink">
    <!-- Generator: Sketch 50.2 (55047) - http://www.bohemiancoding.com/sketch -->
    <title>无文件状态</title>
    <desc>Created with Sketch.</desc>
    <defs></defs>
    <g id="主页" stroke="none" stroke-width="1" fill="none" fill-rule="evenodd">
        <g id="首页-（未绑定状态）" transform="translate(-644.000000, -431.000000)">
            <g id="无文件状态" transform="translate(646.000000, 431.000000)">
                <circle id="Oval-4" fill="#F9FBFD" cx="99" cy="70" r="70"></circle>
                <path d="M12,68 L102.894018,68.0000004 C103.646172,67.9995244 104.34141,68.3951956 104.717695,69.037885 C105.093981,69.6805744 105.09411,70.4725767 104.718033,71.115385 L98.5689995,81.6183848 C98.0870388,82.4415387 12,131 12,131 L12,68 Z" id="形状_9" stroke="#EEF0F2" stroke-width="4" fill="#FFFFFF"></path>
                <path d="M101.022904,110 L115.714546,84.1127752 C116.092706,83.4726079 116.0953,82.6817654 115.721347,82.0391952 C115.347394,81.3966249 114.653943,81.0003572 113.903128,81.0001858 L35.7409243,81.0001858 C34.8994666,80.9889855 34.1360914,81.4851588 33.8141523,82.2525355 L21,111" id="形状_10" stroke="#EEF0F2" stroke-width="4" fill="#FFFFFF" stroke-linecap="round"></path>
                <path d="M126.464728,114.431256 L101.638678,146.686905 C100.650353,148.158223 98.985804,149.028473 97.2157228,148.999289 L3.1598918,148.999289 C2.34509701,149.001149 1.56296692,148.678548 0.985704414,148.102513 C0.40844191,147.526478 0.0833770724,146.744239 0.0820799681,145.928023 L0.0820799681,144.537089 C-0.0273599894,143.932154 -0.0273599894,143.312438 0.0820799681,142.707503 L0.0820799681,56.0723 C0.0831916352,55.2559619 0.408174665,54.4735428 0.985457307,53.8973565 C1.56273995,53.3211702 2.34497599,52.9984731 3.1598918,53.0003334 L80.627716,53.0003334 C81.3490648,52.989502 82.049535,53.2429183 82.5975156,53.712968 L88.932212,58.9908083 C89.6445192,59.5641788 90.0526537,60.4348839 90.0381257,61.3501403 L90.0381257,65.2881996 C90.037014,66.1045377 89.712031,66.8869568 89.1347484,67.4631431 C88.5574657,68.0393294 87.7752297,68.3620265 86.9603139,68.3601662 L11.9036754,68.416224 L11.9036754,131.481231 L32.2990753,108.163996 C33.2328762,106.853549 34.7839429,106.129182 36.3862695,106.255228 L81.8539442,106.255228 L88.0718236,99.1078607 C88.7843693,98.1101579 89.940578,97.5265929 91.1650245,97.5466515 L131.156992,97.5466515 C132.583192,97.5427659 133.893585,98.3325163 134.558289,99.596552 C135.222993,100.860588 135.132053,102.389813 134.322242,103.565856 C134.322242,103.565856 126.850154,113.875583 126.464728,114.431256 Z" id="圆角矩形_13" stroke="#EEF0F2" stroke-width="4" fill="#F9FBFD" stroke-linejoin="round"></path>
                <rect id="Rectangle-25" fill="#EEF0F2" x="134" y="68" width="12" height="4"></rect>
                <rect id="Rectangle-25-Copy-2" fill="#EEF0F2" transform="translate(122.484766, 42.313193) rotate(-75.000000) translate(-122.484766, -42.313193) " x="116.484766" y="40.313193" width="12" height="4"></rect>
                <rect id="Rectangle-25-Copy" fill="#EEF0F2" transform="translate(139.196152, 51.732051) rotate(-30.000000) translate(-139.196152, -51.732051) " x="133.196152" y="49.7320508" width="12" height="4"></rect>
            </g>
        </g>
    </g>
</svg>