<?xml version="1.0" encoding="UTF-8"?>
<svg width="31px" height="32px" viewBox="0 0 31 32" version="1.1" xmlns="http://www.w3.org/2000/svg" xmlns:xlink="http://www.w3.org/1999/xlink">
    <!-- Generator: Sketch 50.2 (55047) - http://www.bohemiancoding.com/sketch -->
    <title>签署</title>
    <desc>Created with Sketch.</desc>
    <defs></defs>
    <g id="合同签署" stroke="none" stroke-width="1" fill="none" fill-rule="evenodd">
        <g id="待我签署" transform="translate(-542.000000, -172.000000)">
            <g id="签署" transform="translate(543.000000, 173.000000)">
                <path d="M17.8779869,0.775907957 C18.2386112,0.331981087 18.7647017,0.0543496137 19.3346969,0.00716457923 C19.9046921,-0.0400204553 20.4692739,0.147323582 20.8979869,0.525907957 L25.2579869,4.31590796 C26.158,5.11557621 26.2682236,6.48234859 25.5079869,7.41590796 L8.92798691,27.565908 C8.67220965,27.8829964 8.32743297,28.1163301 7.93798691,28.235908 L2.79798691,29.905908 C2.09245099,30.1510911 1.30929069,29.9898523 0.757986907,29.485908 C0.18369954,28.9956644 -0.0930555858,28.2412223 0.0279869067,27.495908 L0.807986907,22.035908 C0.866042239,21.6278607 1.03560207,21.2437557 1.29798691,20.925908 L17.8779869,0.775907957 Z" id="圆角矩形_799_拷贝_2" stroke="#FFFFFF" stroke-width="2"></path>
                <rect id="圆角矩形_1316" fill="#FFFFFF" x="12" y="29" width="18" height="2" rx="1"></rect>
                <rect id="圆角矩形_1316_拷贝" fill="#FFFFFF" x="19" y="23" width="11" height="2" rx="1"></rect>
                <path d="M14.7691218,5.35624457 L21.8890953,12.5316197 C21.9721388,12.919999 21.8045537,13.3190113 21.4690953,13.5316197 C21.2530427,13.8629769 20.8569575,14.0293328 20.4690953,13.9516197 L13.3591218,6.76624457 C13.3724775,5.99312275 13.996,5.36960025 14.7691218,5.35624457 Z" id="矩形_801_拷贝_3" fill="#FFFFFF" transform="translate(17.634623, 9.663377) rotate(-5.000000) translate(-17.634623, -9.663377) "></path>
            </g>
        </g>
    </g>
</svg>